<svg xmlns="http://www.w3.org/2000/svg" xmlns:xlink="http://www.w3.org/1999/xlink" width="911" height="460"><g transform="translate(-120 -220)"><path d="M248 610c0 27.6-24.18 50-54 50s-54-22.4-54-50 24.18-50 54-50 54 22.4 54 50z" stroke="#000" stroke-width="2" fill="#fff"/><use xlink:href="#a" transform="matrix(1,0,0,1,145,565) translate(42.525 48.6)"/><path d="M248 450c0 27.6-24.18 50-54 50s-54-22.4-54-50 24.18-50 54-50 54 22.4 54 50z" stroke="#000" stroke-width="2" fill="#fff"/><use xlink:href="#b" transform="matrix(1,0,0,1,145,405) translate(43 48.6)"/><path d="M248 290c0 27.6-24.18 50-54 50s-54-22.4-54-50 24.18-50 54-50 54 22.4 54 50z" stroke="#000" stroke-width="2" fill="#fff"/><use xlink:href="#c" transform="matrix(1,0,0,1,145,245) translate(43 48.6)"/><path d="M248 290h749" stroke="#000" stroke-width="2" fill="none"/><path d="M248 291h-.05l.05-1-.04-1h.04z"/><path d="M997 290l-14.27 4.64v-9.28z" stroke="#000" stroke-width="2"/><path d="M248 450h752" stroke="#000" stroke-width="2" fill="none"/><path d="M248 451h-.05l.05-1-.04-1h.04z"/><path d="M1000 450l-14.27 4.64v-9.28z" stroke="#000" stroke-width="2"/><path d="M248 610h752" stroke="#000" stroke-width="2" fill="none"/><path d="M248 611h-.05l.05-1-.04-1h.04z"/><path d="M1000 610l-14.27 4.64v-9.28z" stroke="#000" stroke-width="2"/><path d="M300 311.6c0 2.76 2.24 5 5 5h70c2.76 0 5-2.24 5-5v-43.2c0-2.76-2.24-5-5-5h-70c-2.76 0-5 2.24-5 5z" stroke="#000" stroke-width="2" fill="#a3d977"/><use xlink:href="#d" transform="matrix(1,0,0,1,305,268.4) translate(0.6000000000000014 25.6)"/><use xlink:href="#e" transform="matrix(1,0,0,1,305,268.4) translate(53.449999999999996 25.6)"/><path d="M380 471.6c0 2.76 2.24 5 5 5h70c2.76 0 5-2.24 5-5v-43.2c0-2.76-2.24-5-5-5h-70c-2.76 0-5 2.24-5 5z" stroke="#000" stroke-width="2" fill="#a3d977"/><use xlink:href="#f" transform="matrix(1,0,0,1,385,428.4) translate(4.049999999999997 25.6)"/><use xlink:href="#g" transform="matrix(1,0,0,1,385,428.4) translate(50 25.6)"/><path d="M460 632c0 2.76 2.24 5 5 5h70c2.76 0 5-2.24 5-5v-43.2c0-2.76-2.24-5-5-5h-70c-2.76 0-5 2.24-5 5z" stroke="#000" stroke-width="2" fill="#fff"/><use xlink:href="#f" transform="matrix(1,0,0,1,465,588.8) translate(4.049999999999997 25.6)"/><use xlink:href="#g" transform="matrix(1,0,0,1,465,588.8) translate(50 25.6)"/><path d="M340 316.6l.02.74.04.73.08.72.1.7.14.72.17.7.2.73.23.72.27.72.3.73.36.75.42.77.45.8.52.8.57.84.67.87.75.9.86.97 1 1 1.13 1.08 1.32 1.15 1.55 1.23 1.84 1.33 2.2 1.45 2.64 1.6 3.26 1.8 4.07 2 5.23 2.33 6.94 2.75 9.68 3.35 14.8 4.44 29.32 7.43 87.05 20.5 14.78 4.43 9.68 3.35 6.94 2.74 5.23 2.3 4.07 2.03 3.26 1.8 2.64 1.6 2.2 1.44 1.83 1.33 1.55 1.23 1.33 1.15 1.15 1.07 1 1 .86.97.76.9.67.9.58.83.53.8.45.8.4.77.36.75.3.74.28.73.23.72.2.72.17.7.14.72.1.7.08.73.04.73.02.74" stroke="#000" stroke-width="2" fill="none"/><path d="M339.08 317l-.17-.4h1.1zM580 423.4l-9.85-11.3 8.52-3.64z"/><path d="M581 423.4h-2.33l-10.18-11.7 11.05-4.7zm-9.2-10.93l6.93 7.95-.93-10.5z"/><path d="M420 476.6l.06 2.44.16 2.3.25 2.2.35 2.1.43 2.04.52 1.98.6 1.93.7 1.88.78 1.88.9 1.87 1 1.87 1.12 1.9 1.28 1.94 1.45 2 1.66 2.06 1.94 2.2 2.28 2.35 2.78 2.6 3.54 3.03 4.94 3.83 11.3 7.9 15.22 10.5 4.94 3.82 3.54 3.02 2.78 2.6 2.28 2.37 1.94 2.2 1.66 2.07 1.45 2 1.28 1.93 1.13 1.9 1 1.87.9 1.87.77 1.88.7 1.9.6 1.92.52 1.98.43 2.03.35 2.1.25 2.2.16 2.3.06 2.45" stroke="#000" stroke-width="2" fill="none"/><path d="M419 476.76v-.16h1zM500 583.8l-6.78-13.38 9.16-1.43z"/><path d="M501 583.8h-2.12l-7.17-14.16 11.88-1.85zm-6.27-12.6l4.77 9.4 1.67-10.4z"/><path d="M420 423.4v-.56l.05-.55.05-.56.08-.54.1-.55.14-.54.15-.55.18-.55.2-.57.26-.58.28-.6.32-.6.36-.62.4-.64.48-.68.53-.7.6-.74.7-.78.8-.82.95-.87 1.1-.93 1.27-1.02 1.5-1.1 1.83-1.2 2.2-1.34 2.73-1.48 3.4-1.7 4.36-1.93 5.73-2.27 7.8-2.7 11.16-3.36 17.36-4.42 19.2-4.02m0 0c-.57-2.7 1.16-5.35 3.87-5.92 2.7-.56 5.35 1.17 5.92 3.88l3.45-.73 153.44-27.9 17.35-4.42 11.15-3.36 7.8-2.7 5.73-2.26 4.36-1.93 3.4-1.7 2.72-1.48 2.2-1.34 1.83-1.2 1.5-1.1 1.3-1.03 1.08-.94.94-.88.8-.82.7-.78.6-.74.54-.7.47-.67.4-.63.37-.63.32-.6.27-.6.24-.57.2-.57.2-.55.14-.56.13-.55.12-.55.08-.54.05-.55.04-.54v-.56" stroke="#000" stroke-width="2" fill="none"/><path d="M420 423.4h-1.14l.26-.47zM737.34 331.36l-8.17-4.38L740 316.6z"/><path d="M738.08 332.9l-10.6-5.7 11.08-10.6h2.46zm-7.22-6.15l5.74 3.08 1.87-10.38z"/><path d="M500 583.8l.06-2.63.16-2.57.26-2.52.37-2.5.47-2.45.57-2.44.67-2.44.8-2.43.9-2.44 1.03-2.47 1.18-2.5 1.32-2.52 1.5-2.57 1.66-2.64 1.9-2.73 2.13-2.8 2.4-2.92 2.74-3.05 3.13-3.2 3.6-3.36 4.15-3.6 4.86-3.83 5.72-4.14 6.83-4.54 8.3-5.02 10.3-5.65 13.2-6.54 17.72-7.85L624 479.2l52.7-18.15 28.7-9.48m0 0c-.87-2.62.55-5.45 3.17-6.32 2.62-.86 5.45.56 6.32 3.18L796 421.6l26.05-10.25 17.7-7.86 13.2-6.55 10.32-5.65 8.3-5.02 6.83-4.54 5.72-4.15 4.86-3.85 4.15-3.6 3.6-3.36 3.13-3.2 2.74-3.05 2.4-2.9 2.15-2.82 1.9-2.72 1.66-2.63 1.5-2.58 1.32-2.54 1.18-2.5 1.03-2.45.9-2.43.8-2.43.68-2.43.58-2.43.47-2.46.37-2.48.26-2.52.16-2.57.06-2.63" stroke="#000" stroke-width="2" fill="none"/><path d="M500.03 583.8H499v-.13zM922.86 331.73l-9.2-1.14L920 317z"/><path d="M924.1 332.9l-11.93-1.48L918.9 317h2.12zm-8.96-3.13l6.47.8-2-10.36z"/><path d="M540 471.6c0 2.76 2.24 5 5 5h70c2.76 0 5-2.24 5-5v-43.2c0-2.76-2.24-5-5-5h-70c-2.76 0-5 2.24-5 5z" stroke="#000" stroke-width="2" fill="#fff"/><use xlink:href="#f" transform="matrix(1,0,0,1,545,428.4) translate(4.049999999999997 25.6)"/><use xlink:href="#g" transform="matrix(1,0,0,1,545,428.4) translate(50 25.6)"/><path d="M660 631.6c0 2.76 2.24 5 5 5h90c2.76 0 5-2.24 5-5v-43.2c0-2.76-2.24-5-5-5h-90c-2.76 0-5 2.24-5 5z" stroke="#000" stroke-width="2" fill="#a3d977"/><use xlink:href="#h" transform="matrix(1,0,0,1,665,588.4) translate(2.624999999999993 25.6)"/><use xlink:href="#i" transform="matrix(1,0,0,1,665,588.4) translate(71.42500000000001 25.6)"/><path d="M700 311.6c0 2.76 2.24 5 5 5h70c2.76 0 5-2.24 5-5v-43.2c0-2.76-2.24-5-5-5h-70c-2.76 0-5 2.24-5 5z" stroke="#000" stroke-width="2" fill="#fff"/><use xlink:href="#f" transform="matrix(1,0,0,1,705,268.4) translate(4.049999999999997 25.6)"/><use xlink:href="#g" transform="matrix(1,0,0,1,705,268.4) translate(50 25.6)"/><path d="M880 312c0 2.76 2.24 5 5 5h70c2.76 0 5-2.24 5-5v-43.2c0-2.76-2.24-5-5-5h-70c-2.76 0-5 2.24-5 5z" stroke="#000" stroke-width="2" fill="#fff"/><use xlink:href="#f" transform="matrix(1,0,0,1,885,268.8) translate(4.049999999999997 25.6)"/><use xlink:href="#g" transform="matrix(1,0,0,1,885,268.8) translate(50 25.6)"/><path d="M840 471.2c0 2.76 2.24 5 5 5h90c2.76 0 5-2.24 5-5V428c0-2.76-2.24-5-5-5h-90c-2.76 0-5 2.24-5 5z" stroke="#000" stroke-width="2" fill="#fff"/><g><use xlink:href="#h" transform="matrix(1,0,0,1,845,428) translate(2.624999999999993 25.6)"/><use xlink:href="#i" transform="matrix(1,0,0,1,845,428) translate(71.42500000000001 25.6)"/></g><path d="M710 583.4l.02-1 .06-.96.1-.96.14-.94.18-.93.22-.92.25-.92.3-.93.35-.93.4-.94.45-.95.5-.96.57-1 .65-1 .7-1.05.83-1.1.93-1.1 1.06-1.18 1.2-1.23 1.4-1.3 1.6-1.4 1.87-1.48 2.2-1.6 2.63-1.75 3.2-1.93 3.95-2.17 5-2.48 6.63-2.95 9.36-3.7 15.5-5.35 70.98-22.36 9.35-3.7 6.6-2.93 5.02-2.47 3.95-2.17 3.2-1.93 2.63-1.75 2.2-1.6 1.88-1.48 1.6-1.4 1.4-1.3 1.2-1.22 1.06-1.17.93-1.1.82-1.1.7-1.04.66-1 .57-1 .5-.97.45-.96.4-.94.34-.93.3-.93.26-.92.22-.93.18-.94.14-.94.1-.96.06-.97.02-1" stroke="#000" stroke-width="2" fill="none"/><path d="M710 583.4h-1.05l.1-.32zM889.92 491.2l-8.8-2.9 8.88-12.1z"/><path d="M890.9 492.58l-11.4-3.78 9.26-12.6H891zm-8.16-4.8l6.2 2.04.04-10.55z"/><defs><path d="M212-179c-10-28-35-45-73-45-59 0-87 40-87 99 0 60 29 101 89 101 43 0 62-24 78-52l27 14C228-24 195 4 139 4 59 4 22-46 18-125c-6-104 99-153 187-111 19 9 31 26 39 46" id="j"/><use transform="matrix(0.05,0,0,0.05,0,0)" xlink:href="#j" id="a"/><path d="M160-131c35 5 61 23 61 61C221 17 115-2 30 0v-248c76 3 177-17 177 60 0 33-19 50-47 57zm-97-11c50-1 110 9 110-42 0-47-63-36-110-37v79zm0 115c55-2 124 14 124-45 0-56-70-42-124-44v89" id="k"/><use transform="matrix(0.05,0,0,0.05,0,0)" xlink:href="#k" id="b"/><path d="M205 0l-28-72H64L36 0H1l101-248h38L239 0h-34zm-38-99l-47-123c-12 45-31 82-46 123h93" id="l"/><use transform="matrix(0.05,0,0,0.05,0,0)" xlink:href="#l" id="c"/><path d="M87 75C49 33 22-17 22-94c0-76 28-126 65-167h31c-38 41-64 92-64 168S80 34 118 75H87" id="m"/><path d="M141-36C126-15 110 5 73 4 37 3 15-17 15-53c-1-64 63-63 125-63 3-35-9-54-41-54-24 1-41 7-42 31l-33-3c5-37 33-52 76-52 45 0 72 20 72 64v82c-1 20 7 32 28 27v20c-31 9-61-2-59-35zM48-53c0 20 12 33 32 33 41-3 63-29 60-74-43 2-92-5-92 41" id="n"/><path d="M24 0v-261h32V0H24" id="o"/><path d="M24-231v-30h32v30H24zM24 0v-190h32V0H24" id="p"/><path d="M96-169c-40 0-48 33-48 73s9 75 48 75c24 0 41-14 43-38l32 2c-6 37-31 61-74 61-59 0-76-41-82-99-10-93 101-131 147-64 4 7 5 14 7 22l-32 3c-4-21-16-35-41-35" id="q"/><path d="M100-194c63 0 86 42 84 106H49c0 40 14 67 53 68 26 1 43-12 49-29l28 8c-11 28-37 45-77 45C44 4 14-33 15-96c1-61 26-98 85-98zm52 81c6-60-76-77-97-28-3 7-6 17-6 28h103" id="r"/><path d="M68-38c1 34 0 65-14 84H32c9-13 17-26 17-46H33v-38h35" id="s"/><g id="d"><use transform="matrix(0.05,0,0,0.05,0,0)" xlink:href="#m"/><use transform="matrix(0.05,0,0,0.05,5.95,0)" xlink:href="#n"/><use transform="matrix(0.05,0,0,0.05,15.949999999999998,0)" xlink:href="#o"/><use transform="matrix(0.05,0,0,0.05,19.9,0)" xlink:href="#p"/><use transform="matrix(0.05,0,0,0.05,23.849999999999998,0)" xlink:href="#q"/><use transform="matrix(0.05,0,0,0.05,32.849999999999994,0)" xlink:href="#r"/><use transform="matrix(0.05,0,0,0.05,42.849999999999994,0)" xlink:href="#s"/></g><path d="M27 0v-27h64v-190l-56 39v-29l58-41h29v221h61V0H27" id="t"/><path d="M33-261c38 41 65 92 65 168S71 34 33 75H2C39 34 66-17 66-93S39-220 2-261h31" id="u"/><g id="e"><use transform="matrix(0.05,0,0,0.05,0,0)" xlink:href="#t"/><use transform="matrix(0.05,0,0,0.05,10,0)" xlink:href="#u"/></g><path d="M115-194c53 0 69 39 70 98 0 66-23 100-70 100C84 3 66-7 56-30L54 0H23l1-261h32v101c10-23 28-34 59-34zm-8 174c40 0 45-34 45-75 0-40-5-75-45-74-42 0-51 32-51 76 0 43 10 73 51 73" id="v"/><path d="M100-194c62-1 85 37 85 99 1 63-27 99-86 99S16-35 15-95c0-66 28-99 85-99zM99-20c44 1 53-31 53-75 0-43-8-75-51-75s-53 32-53 75 10 74 51 75" id="w"/><g id="f"><use transform="matrix(0.05,0,0,0.05,0,0)" xlink:href="#m"/><use transform="matrix(0.05,0,0,0.05,5.95,0)" xlink:href="#v"/><use transform="matrix(0.05,0,0,0.05,15.949999999999998,0)" xlink:href="#w"/><use transform="matrix(0.05,0,0,0.05,25.950000000000003,0)" xlink:href="#v"/><use transform="matrix(0.05,0,0,0.05,35.95,0)" xlink:href="#s"/></g><path d="M101-251c82-7 93 87 43 132L82-64C71-53 59-42 53-27h129V0H18c2-99 128-94 128-182 0-28-16-43-45-43s-46 15-49 41l-32-3c6-41 34-60 81-64" id="x"/><g id="g"><use transform="matrix(0.05,0,0,0.05,0,0)" xlink:href="#x"/><use transform="matrix(0.05,0,0,0.05,10,0)" xlink:href="#u"/></g><path d="M106-169C34-169 62-67 57 0H25v-261h32l-1 103c12-21 28-36 61-36 89 0 53 116 60 194h-32v-121c2-32-8-49-39-48" id="y"/><path d="M114-163C36-179 61-72 57 0H25l-1-190h30c1 12-1 29 2 39 6-27 23-49 58-41v29" id="z"/><g id="h"><use transform="matrix(0.05,0,0,0.05,0,0)" xlink:href="#m"/><use transform="matrix(0.05,0,0,0.05,5.95,0)" xlink:href="#q"/><use transform="matrix(0.05,0,0,0.05,14.949999999999998,0)" xlink:href="#y"/><use transform="matrix(0.05,0,0,0.05,24.95,0)" xlink:href="#n"/><use transform="matrix(0.05,0,0,0.05,34.95,0)" xlink:href="#z"/><use transform="matrix(0.05,0,0,0.05,40.900000000000006,0)" xlink:href="#o"/><use transform="matrix(0.05,0,0,0.05,44.85000000000001,0)" xlink:href="#p"/><use transform="matrix(0.05,0,0,0.05,48.80000000000001,0)" xlink:href="#r"/><use transform="matrix(0.05,0,0,0.05,58.80000000000001,0)" xlink:href="#s"/></g><path d="M126-127c33 6 58 20 58 59 0 88-139 92-164 29-3-8-5-16-6-25l32-3c6 27 21 44 54 44 32 0 52-15 52-46 0-38-36-46-79-43v-28c39 1 72-4 72-42 0-27-17-43-46-43-28 0-47 15-49 41l-32-3c6-42 35-63 81-64 48-1 79 21 79 65 0 36-21 52-52 59" id="A"/><g id="i"><use transform="matrix(0.05,0,0,0.05,0,0)" xlink:href="#A"/><use transform="matrix(0.05,0,0,0.05,10,0)" xlink:href="#u"/></g></defs></g></svg>