<svg xmlns="http://www.w3.org/2000/svg" xmlns:xlink="http://www.w3.org/1999/xlink" width="911" height="460"><g transform="translate(-120 -220)"><path d="M248 610c0 27.6-24.18 50-54 50s-54-22.4-54-50 24.18-50 54-50 54 22.4 54 50z" stroke="#000" stroke-width="2" fill="#fff"/><use xlink:href="#a" transform="matrix(1,0,0,1,145,565) translate(42.525 48.6)"/><path d="M248 450c0 27.6-24.18 50-54 50s-54-22.4-54-50 24.18-50 54-50 54 22.4 54 50z" stroke="#000" stroke-width="2" fill="#fff"/><use xlink:href="#b" transform="matrix(1,0,0,1,145,405) translate(43 48.6)"/><path d="M248 290c0 27.6-24.18 50-54 50s-54-22.4-54-50 24.18-50 54-50 54 22.4 54 50z" stroke="#000" stroke-width="2" fill="#fff"/><use xlink:href="#c" transform="matrix(1,0,0,1,145,245) translate(43 48.6)"/><path d="M248 290h749" stroke="#000" stroke-width="2" fill="none"/><path d="M248 291h-.05l.05-1-.04-1h.04z"/><path d="M997 290l-14.27 4.64v-9.28z" stroke="#000" stroke-width="2"/><path d="M248 450h752" stroke="#000" stroke-width="2" fill="none"/><path d="M248 451h-.05l.05-1-.04-1h.04z"/><path d="M1000 450l-14.27 4.64v-9.28z" stroke="#000" stroke-width="2"/><path d="M248 610h752" stroke="#000" stroke-width="2" fill="none"/><path d="M248 611h-.05l.05-1-.04-1h.04z"/><path d="M1000 610l-14.27 4.64v-9.28z" stroke="#000" stroke-width="2"/><path d="M300 305c0 2.76 2.24 5 5 5h50c2.76 0 5-2.24 5-5v-30c0-2.76-2.24-5-5-5h-50c-2.76 0-5 2.24-5 5z" stroke="#000" stroke-width="2" fill="#a3d977"/><use xlink:href="#d" transform="matrix(1,0,0,1,305,275) translate(20 18.6)"/><path d="M380 465c0 2.76 2.24 5 5 5h50c2.76 0 5-2.24 5-5v-30c0-2.76-2.24-5-5-5h-50c-2.76 0-5 2.24-5 5z" stroke="#000" stroke-width="2" fill="#a3d977"/><use xlink:href="#d" transform="matrix(1,0,0,1,385,435) translate(20 18.6)"/><path d="M620 630c0 2.76 2.24 5 5 5h50c2.76 0 5-2.24 5-5v-40c0-2.76-2.24-5-5-5h-50c-2.76 0-5 2.24-5 5z" stroke="#000" stroke-width="2" fill="#fff"/><use xlink:href="#e" transform="matrix(1,0,0,1,625,590) translate(20 23.6)"/><path d="M330 310l.02.94.06.9.1.92.12.9.17.88.2.9.26.88.3.9.33.9.38.9.44.94.5.95.56.98.63 1 .72 1.03.8 1.08.92 1.1 1.05 1.18 1.2 1.23 1.4 1.3 1.6 1.38 1.88 1.5 2.22 1.6 2.65 1.75 3.2 1.94 3.93 2.15 4.93 2.45 6.38 2.83 8.57 3.38 12.34 4.28 20.68 6.2 103.58 27.68 12.34 4.28 8.57 3.38 6.38 2.83 4.93 2.45 3.93 2.15 3.2 1.94 2.65 1.75 2.22 1.6 1.88 1.5 1.6 1.4 1.4 1.3 1.2 1.22 1.05 1.17.92 1.12.8 1.07.73 1.02.63 1 .56.97.5.94.44.93.38.9.34.9.3.9.24.9.2.9.18.88.13.9.1.9.05.9.02.95" stroke="#000" stroke-width="2" fill="none"/><path d="M329.05 310.33l-.1-.33H330zM570 430l-9.03-11.97 8.76-3.03z"/><path d="M571 430h-2.25l-9.4-12.47 11.35-3.92zm-8.4-11.48l6.34 8.42-.2-10.54z"/><path d="M570 470l.06 2.62.16 2.47.25 2.34.35 2.26.43 2.16.5 2.1.6 2.05.68 2.02.77 1.97.86 1.95.96 1.95 1.07 1.97 1.2 1.98 1.34 2.03 1.52 2.1 1.74 2.17 2.02 2.3 2.37 2.5 2.87 2.76 3.68 3.25 5.3 4.27 27.8 20.83 3.68 3.24 2.88 2.76 2.38 2.5 2.02 2.3 1.74 2.17 1.52 2.1 1.35 2.02 1.2 1.98 1.08 1.97.96 1.95.86 1.96.77 1.98.67 2 .6 2.05.5 2.1.44 2.17.35 2.26.25 2.35.16 2.48.06 2.62" stroke="#000" stroke-width="2" fill="none"/><path d="M569 470.14V470h1zM650 585l-6.5-13.5 9.18-1.26z"/><path d="M651.02 585h-2.13l-6.9-14.32 11.9-1.6zM645 572.3l4.57 9.5 1.88-10.38z"/><path d="M410 430v-.66l.06-.66.06-.64.1-.65.12-.66.15-.64.18-.66.2-.66.26-.66.3-.68.3-.7.4-.7.4-.75.5-.77.54-.8.63-.8.72-.87.82-.9.94-.97 1.1-1.04 1.27-1.1 1.5-1.18 1.77-1.3 2.12-1.4 2.57-1.55 3.18-1.74 3.96-1.97 5.07-2.25 6.68-2.63 9.1-3.16 13.08-3.94 20.67-5.26 9.82-2.06m0 0c-.56-2.7 1.17-5.35 3.87-5.9 2.7-.58 5.35 1.15 5.92 3.86l22.2-4.64 140.73-26.66 20.67-5.26 13.1-3.93 9.08-3.15 6.67-2.63 5.06-2.25 3.96-1.96 3.17-1.73 2.56-1.55 2.12-1.4 1.77-1.3 1.5-1.18 1.27-1.1 1.1-1.03.94-.95.82-.9.7-.87.64-.82.55-.8.48-.75.42-.73.38-.7.32-.7.3-.7.24-.65.22-.66.2-.66.14-.64.12-.65.1-.64.06-.64.05-.66V310" stroke="#000" stroke-width="2" fill="none"/><path d="M410 430h-1.1l.2-.42zM748.2 324.9l-8.4-3.9 10.2-11z"/><path d="M749.04 326.38l-10.9-5.05 10.5-11.33H751zm-7.57-5.7l5.9 2.73 1.27-10.46z"/><path d="M650 585l.1-4.48.26-4.3.44-4.15.6-4.03.74-3.93.9-3.83 1.06-3.78 1.22-3.75 1.37-3.7 1.55-3.7 1.73-3.7 1.95-3.7 2.17-3.76 2.42-3.83 2.7-3.9 3.05-4 3.43-4.14 3.9-4.32 4.45-4.54 5.15-4.83 6.04-5.2 7.24-5.74 8.93-6.5 11.6-7.67 16.78-10.13 30.6-16.97m0 0c-1.34-2.42-.47-5.46 1.95-6.8 2.4-1.34 5.46-.47 6.8 1.94l57.87-32.1 11.6-7.68 8.92-6.5 7.24-5.72 6.04-5.2 5.15-4.84 4.46-4.55 3.9-4.33 3.43-4.14 3.04-4 2.7-3.9 2.43-3.82 2.17-3.74 1.95-3.72 1.73-3.7 1.56-3.7 1.38-3.7 1.22-3.73 1.05-3.77.9-3.84.76-3.94.6-4.03.44-4.15.27-4.3.1-4.48" stroke="#000" stroke-width="2" fill="none"/><path d="M650.06 585H649v-.08zM913.58 324.57l-9.25-.68L910 310z"/><path d="M914.88 325.67l-12-.9 6.04-14.77h2.1zm-9.1-2.68l6.5.47-2.52-10.24z"/><path d="M540 465c0 2.76 2.24 5 5 5h50c2.76 0 5-2.24 5-5v-30c0-2.76-2.24-5-5-5h-50c-2.76 0-5 2.24-5 5z" stroke="#000" stroke-width="2" fill="#fff"/><use xlink:href="#f" transform="matrix(1,0,0,1,545,435) translate(20 18.6)"/><path d="M720 305c0 2.76 2.24 5 5 5h50c2.76 0 5-2.24 5-5v-30c0-2.76-2.24-5-5-5h-50c-2.76 0-5 2.24-5 5z" stroke="#000" stroke-width="2" fill="#fff"/><use xlink:href="#f" transform="matrix(1,0,0,1,725,275) translate(20 18.6)"/><path d="M880 305c0 2.76 2.24 5 5 5h50c2.76 0 5-2.24 5-5v-30c0-2.76-2.24-5-5-5h-50c-2.76 0-5 2.24-5 5z" stroke="#000" stroke-width="2" fill="#fff"/><use xlink:href="#g" transform="matrix(1,0,0,1,885,275) translate(20 18.6)"/><path d="M780 625c0 2.76 2.24 5 5 5h50c2.76 0 5-2.24 5-5v-30c0-2.76-2.24-5-5-5h-50c-2.76 0-5 2.24-5 5z" stroke="#000" stroke-width="2" fill="#a3d977"/><use xlink:href="#g" transform="matrix(1,0,0,1,785,595) translate(20 18.6)"/><defs><path d="M212-179c-10-28-35-45-73-45-59 0-87 40-87 99 0 60 29 101 89 101 43 0 62-24 78-52l27 14C228-24 195 4 139 4 59 4 22-46 18-125c-6-104 99-153 187-111 19 9 31 26 39 46" id="h"/><use transform="matrix(0.05,0,0,0.05,0,0)" xlink:href="#h" id="a"/><path d="M160-131c35 5 61 23 61 61C221 17 115-2 30 0v-248c76 3 177-17 177 60 0 33-19 50-47 57zm-97-11c50-1 110 9 110-42 0-47-63-36-110-37v79zm0 115c55-2 124 14 124-45 0-56-70-42-124-44v89" id="i"/><use transform="matrix(0.05,0,0,0.05,0,0)" xlink:href="#i" id="b"/><path d="M205 0l-28-72H64L36 0H1l101-248h38L239 0h-34zm-38-99l-47-123c-12 45-31 82-46 123h93" id="j"/><use transform="matrix(0.05,0,0,0.05,0,0)" xlink:href="#j" id="c"/><path d="M27 0v-27h64v-190l-56 39v-29l58-41h29v221h61V0H27" id="k"/><use transform="matrix(0.05,0,0,0.05,0,0)" xlink:href="#k" id="d"/><path d="M126-127c33 6 58 20 58 59 0 88-139 92-164 29-3-8-5-16-6-25l32-3c6 27 21 44 54 44 32 0 52-15 52-46 0-38-36-46-79-43v-28c39 1 72-4 72-42 0-27-17-43-46-43-28 0-47 15-49 41l-32-3c6-42 35-63 81-64 48-1 79 21 79 65 0 36-21 52-52 59" id="l"/><use transform="matrix(0.05,0,0,0.05,0,0)" xlink:href="#l" id="e"/><path d="M101-251c82-7 93 87 43 132L82-64C71-53 59-42 53-27h129V0H18c2-99 128-94 128-182 0-28-16-43-45-43s-46 15-49 41l-32-3c6-41 34-60 81-64" id="m"/><use transform="matrix(0.05,0,0,0.05,0,0)" xlink:href="#m" id="f"/><path d="M155-56V0h-30v-56H8v-25l114-167h33v167h35v25h-35zm-30-156c-27 46-58 90-88 131h88v-131" id="n"/><use transform="matrix(0.05,0,0,0.05,0,0)" xlink:href="#n" id="g"/></defs></g></svg>