<svg xmlns="http://www.w3.org/2000/svg" xmlns:xlink="http://www.w3.org/1999/xlink" width="1211.58" height="601"><g transform="translate(-80 -100)"><path d="M1079.7 407v4.6M1079.1 446.1c-7.1-2.2-14.8-2.5-21.3-2.5-9.6 0-21.7 2.1-24.1 5.1l-.1-4.2c.9-3.7 12.2-6.8 22.2-6.8 3.3 0 18.5 1.4 23.3 3.8" fill="#1e4a76"/><path d="M1034.1 443.8v4.6c-.1.1-.2.3-.2.4v-4.5c0-.2.1-.4.2-.5" fill="#1e4a76"/><path d="M1033.9 444.3v4.5c-.1.1-.1.2-.1.3v-4.6c0-.1 0-.1.1-.2" fill="#1e4a76"/><path d="M1059.3 447.8c4.1 0 7.6.3 10.5.7 6.3 1 9.5 2.6 9.5 3.6s-3.2 2.7-9.5 3.6c-2.9.5-6.4.8-10.5.8-13.1 0-20.1-2.9-20.1-4.4 0-1.4 7-4.3 20.1-4.3z" fill="#2e73b7"/><path d="M1079.3 452.1v4.9c0 1.1-3.3 2.7-9.5 3.6-2.9.5-6.4.8-10.5.8-13.1 0-20.1-2.9-20.1-4.4v-4.9c0 1.5 7 4.4 20.1 4.4 4.1 0 7.6-.3 10.5-.8 6.2-.9 9.5-2.6 9.5-3.6zM1079.3 452.1v5-4.9-.1M1079.3 452.2v5-4.9-.1" fill="#1e4a76"/><path d="M1079.3 452.3v4.9c0 .1 0 .1-.1.2v-5c.1 0 .1 0 .1-.1M1079.2 452.4v5c-.6 1-3.8 2.4-9.4 3.2-2.9.5-6.4.8-10.5.8-13.1 0-20.1-2.9-20.1-4.4v-4.9c0 1.5 7.1 4.4 20.1 4.4 4.1 0 7.6-.3 10.5-.8 5.6-.8 8.8-2.2 9.4-3.3M1079.7 490.6v5-4.9-.1M1079.7 490.7v4.9c0 .1-.1.1-.1.2v-4.9c0-.1.1-.1.1-.2M1079.6 490.9v4.9s0 .1-.1.2v-4.9c.1-.1.1-.2.1-.2" fill="#1e4a76"/><path d="M1060.7 494.8c-7.4 0-13-.7-17-1.8v-1.9c-2.5-1.1-4.3-2.4-4.5-3.4v8.1c.4.5 1.3 1.1 4.4 2.1 4.1 1.2 9.6 2 17 2 13.5 0 19.1-2.9 19.1-4.4v-4.9c0 1.5-5.5 4.2-19 4.2zM987.9 492.9v4.5c-4.2 0-7.6-3.1-7.6-7l-.2-4.4c0 3.8 3.6 6.9 7.8 6.9z" fill="#1e4a76"/><path d="M1036.6 492.8v4.6h-48.7l-1.1-6 49.8 1.4z" fill="#1e4a76"/><path d="M1079.2 442.1c-7.2-2.4-19-2.5-22.4-2.4-9.8.1-21 2.3-22.9 5l-.1.5v45.2c0 .8 1.8 1.9 2.8 2.4l-49 .1c-4.2 0-7.6-3.2-7.6-7V407c0-3.9 3.4-7 7.6-7h84.3c4.2 0 7.6 3.1 7.6 7" fill="#2e73b7"/><path d="M1079.7 460.6v30c0 1.5-5.6 4.3-19.1 4.3-7.4 0-13-.8-16.6-1.8-2.7-.8-4.6-1.7-4.8-2.4v-29.8c3.9 2.3 12 3.4 20.1 3.4h3.3c.7 0 1.4-.1 2-.1.4 0 .7-.1 1-.1.6 0 1.1-.1 1.6-.1.3-.1.6-.1.9-.2.6 0 1.1-.1 1.7-.1 4.4-.7 7.8-1.8 9.9-3.1z" fill="#2e73b7"/><path d="M1003.4 422.6l-3.3-12.5h-4.5V427h2.7v-14.1h.1l3.7 14.1h2.5l3.7-14.1V427h2.8v-16.9h-4.5l-3.2 12.5zM1018.9 423.8h-.1l-2.4-9.5h-3l4 13-.4 1c-.3.9-.9 1-1.9 1-.3 0-.6 0-.9-.1v2.1c.4 0 .8.1 1.1.1 2.9 0 3.8-.4 4.9-3.9l3.8-13.2h-2.9l-2.2 9.5zM1033.6 417.8l-2-.7c-2-.7-2.8-1.4-2.8-2.9 0-1.8 1.3-2.4 2.5-2.4 1.8 0 2.6.9 2.6 2.4v.4h2.9v-.4c0-1.7-.5-4.4-5.2-4.4-3.4 0-5.7 1.7-5.7 4.7 0 2.5 1.2 3.7 3.8 4.7l2 .6c1.7.5 2.7 1.3 2.7 3 0 1.3-1 2.5-2.8 2.5-2 0-3-1-3-3.1v-.4h-2.9v.4c0 2.4 1 5.1 5.5 5.1 3.7 0 6.1-1.5 6.1-5.1 0-2.3-1.1-3.6-3.7-4.4zM1048.8 426.8l1.9 1.7 1.7-1.4-1.9-1.8c.9-1.3 1.5-3.6 1.5-6.8 0-6-1.9-8.7-6.1-8.7-4.2 0-6 2.7-6 8.7 0 6.1 1.8 8.8 6 8.8 1.2 0 2.1-.1 2.9-.5zm-6-8.3c0-5.7 1.4-6.7 3.1-6.7 1.8 0 3.1 1 3.1 6.7 0 2.4-.1 3.9-.6 5l-1.2-1.2-1.6 1.6 1.4 1.2c-.4.2-.7.2-1.1.2-1.7 0-3.1-1-3.1-6.8zM1064.9 424.7h-7.1v-14.6h-2.9V427h10v-2.3zM1059.5 484.7h-.1l-4.2-16.7h-6.1v22.5h3.7v-18.7l4.9 18.7h3.3l4.9-18.7h.1v18.7h3.7V468h-6l-4.2 16.7z" fill="#fff"/><use xlink:href="#a" transform="matrix(1,0,0,1,980,480) translate(50 15.4)"/><path d="M1251.58 567v4.6M1200.6 603.9v4.5c-.12.2-.24.3-.35.5v-4.6c.1-.1.23-.3.34-.4M1200.25 604.3V609.2v-4.6-.3" fill="#1e4a76"/><path d="M1250.9 606.1c-7.9-2.1-16.5-2.4-23.87-2.4-10.7 0-24.32 2-26.9 5.1l-.1-4.2c1-3.7 13.6-6.8 24.77-6.8 3.8 0 20.75 1.4 26.1 3.7" fill="#1e4a76"/><path d="M1228.7 607.8c4.7 0 8.6.3 11.83.8 6.92.9 10.6 2.6 10.6 3.6s-3.68 2.7-10.6 3.6c-3.23.5-7.14.7-11.82.7-14.5 0-22.53-2.8-22.53-4.3s8.03-4.4 22.54-4.4z" fill="#2e73b7"/><path d="M1251.13 612.2v5-4.9-.1M1251.13 612.3v5-4.9-.1M1251.13 612.4v4.9s0 .1-.1.2v-5c.1 0 .1-.1.1-.1" fill="#1e4a76"/><path d="M1251.02 612.5v5c-.67 1-4.24 2.4-10.5 3.2-3.22.5-7.13.8-11.8.8-14.52 0-22.55-2.9-22.55-4.4v-4.9c0 1.5 8.03 4.3 22.54 4.3 4.7 0 8.6-.2 11.83-.7 6.25-.8 9.82-2.3 10.5-3.3" fill="#1e4a76"/><path d="M1251.13 612.2v4.9c0 1-3.68 2.7-10.6 3.6-3.23.5-7.14.8-11.82.8-14.5 0-22.53-2.9-22.53-4.4v-4.9c0 1.5 8.03 4.3 22.54 4.3 4.7 0 8.6-.2 11.83-.7 6.92-.9 10.6-2.6 10.6-3.6zM1251.58 650.7v5.1-5-.1M1251.58 650.9v4.9l-.1.1V651c0-.1.1-.1.1-.1M1251.47 651v4.9c0 .1 0 .1-.1.2v-4.9c.1-.1.1-.1.1-.2" fill="#1e4a76"/><path d="M1230.27 654.9c-8.15 0-14.5-.6-18.97-1.8v-1.9c-2.9-1.1-4.8-2.4-5.02-3.3v8c.44.6 1.45 1.2 4.9 2.2 4.58 1.1 10.72 1.9 18.98 1.9 15.17 0 21.42-2.8 21.42-4.3v-5c0 1.6-6.14 4.2-21.3 4.2zM1148.8 653v4.6c-4.67 0-8.47-3.2-8.47-7l-.22-4.5c0 3.9 4.03 6.9 8.7 6.9z" fill="#1e4a76"/><path d="M1203.38 653v4.5l-54.57.1-1.2-6z" fill="#1e4a76"/><path d="M1251.02 602.1c-8.03-2.3-21.3-2.4-25.1-2.4-10.94.2-23.55 2.3-25.67 5.1V650.6c0 .8 2 1.8 3.13 2.4h-54.9c-4.7 0-8.48-3.1-8.48-7v-79c0-3.9 3.8-7 8.48-7h94.28c4.8 0 8.6 3.1 8.6 7" fill="#2e73b7"/><path d="M1251.58 620.7v30c0 1.6-6.25 4.4-21.42 4.4-8.26 0-14.5-.8-18.53-1.8-3-.8-5.13-1.7-5.35-2.4V621c4.35 2.3 13.4 3.4 22.43 3.4h3.69c.77-.1 1.55-.1 2.33-.1.45-.1.78-.1 1.12-.1.67-.1 1.22-.1 1.78-.1.34-.1.67-.1 1-.2.56 0 1.23-.1 1.9-.2 4.9-.6 8.7-1.7 11.05-3z" fill="#2e73b7"/><path d="M1223.35 641.6c0 3 2.8 4.1 5.9 4.1 2.13 0 5.26-.5 5.26-2.7 0-2.4-4-2.8-8.03-3.7-3.9-.9-7.92-2.1-7.92-6.3 0-4.6 5.13-6.7 10.04-6.7 5.57 0 10.7 2 10.7 7.1h-5.7c-.2-2.6-2.44-3.3-5.34-3.3-1.9 0-4.02.6-4.02 2.5 0 1.7 1.23 1.9 8.04 3.3 1.9.5 7.92 1.5 7.92 6.5 0 4.1-3.8 7.1-11.16 7.1-5.9 0-11.5-2.4-11.38-7.9h5.7z" fill="#fff"/><use xlink:href="#a" transform="matrix(1,0,0,1,1140,640) translate(56 15.4)"/><path d="M630 661.9v4.7c0 .7 0 1.3-.1 1.9v-4.6c.1-.7.1-1.3.1-2M629.9 663.9v4.6c-.24.8-.35 1.5-.7 2.2V666c.35-.7.46-1.4.7-2.1" fill="#1e4a76"/><path d="M629.2 666v4.7c-.22.8-.68 1.6-1.24 2.3v-4.6c.56-.8 1.02-1.6 1.25-2.4" fill="#1e4a76"/><path d="M630 661.9v4.7c0 7.4-7.27 13.4-16.24 13.4v-4.7c8.97 0 16.24-6 16.24-13.4z" fill="#1e4a76"/><path d="M616.14 673.9l-2.38 6.1h-81.1v-4.7z" fill="#1e4a76"/><path d="M532.67 675.3v4.7c-8.97 0-16.24-6-16.24-13.4v-4.7c0 7.4 7.27 13.4 16.24 13.4z" fill="#1e4a76"/><path d="M613.76 580c8.97 0 16.24 6 16.24 13.4v68.5c0 7.4-7.27 13.4-16.24 13.4h-81.1c-8.96 0-16.23-6-16.23-13.4v-68.5c0-7.4 7.27-13.4 16.24-13.4h81.1z" fill="#2e73b7"/><path d="M614.1 612.2v-7.1h-10.68v-9h-8.63v9h-4.32v-9h-8.63v9h-4.32v-9h-8.63v9h-4.32v-9h-8.63v9h-4.3v-9H543v9h-10.67v7.1H543v3.6h-10.67v7.1H543v3.6h-10.67v7.2H543v3.5h-10.67v7.2H543v3.5h-10.67v7.2H543v8.9h8.64v-8.9h4.3v8.9h8.64v-8.9h4.32v8.9h8.63v-8.9h4.32v8.9h8.63v-8.9h4.3v8.9h8.64v-8.9h10.68v-7.2h-10.68v-3.5h10.68v-7.2h-10.68v-3.5h10.68v-7.2h-10.68v-3.6h10.68v-7.1h-10.68v-3.6z" fill="#fff"/><path d="M554.13 615.4h10.9l8.3 20.1h.1l7.96-20.1h10.9v29.2h-7.27v-20.7h-.12l-8.73 20.7h-6.02l-8.63-20.5h-.12v20.5h-7.27v-29.2z" fill="#2e73b7"/><use xlink:href="#a" transform="matrix(1,0,0,1,516.4285714285714,660) translate(57 15.4)"/><path d="M814 661.9v4.7c0 .7 0 1.3-.1 1.9v-4.6c.1-.7.1-1.3.1-2M813.9 663.9v4.6c-.24.8-.35 1.5-.7 2.2V666c.35-.7.46-1.4.7-2.1" fill="#1e4a76"/><path d="M813.2 666v4.7c-.22.8-.68 1.6-1.24 2.3v-4.6c.56-.8 1.02-1.6 1.25-2.4" fill="#1e4a76"/><path d="M814 661.9v4.7c0 7.4-7.27 13.4-16.24 13.4v-4.7c8.97 0 16.24-6 16.24-13.4z" fill="#1e4a76"/><path d="M800.14 673.9l-2.38 6.1h-81.1v-4.7z" fill="#1e4a76"/><path d="M716.67 675.3v4.7c-8.97 0-16.24-6-16.24-13.4v-4.7c0 7.4 7.27 13.4 16.24 13.4z" fill="#1e4a76"/><path d="M797.76 580c8.97 0 16.24 6 16.24 13.4v68.5c0 7.4-7.27 13.4-16.24 13.4h-81.1c-8.96 0-16.23-6-16.23-13.4v-68.5c0-7.4 7.27-13.4 16.24-13.4h81.1z" fill="#2e73b7"/><path d="M797.3 612.6v-7.1h-10.67v-8.9H778v8.9h-4.32v-8.9h-8.63v8.9h-4.3v-8.9h-8.65v8.9h-4.3v-8.9h-8.64v8.9h-4.32v-8.9h-8.63v8.9h-10.78v7.1h10.8v3.6h-10.8v7.1h10.8v3.6h-10.8v7.2h10.8v3.5h-10.8v7.2h10.8v3.6h-10.8v7.1h10.8v8.9h8.62v-8.9h4.32v8.9h8.63v-8.9h4.3v8.9h8.63v-8.9h4.32v8.9h8.63v-8.9H778v8.9h8.63v-8.9h10.68v-7.1h-10.67v-3.6h10.68v-7.2h-10.67v-3.5h10.68v-7.2h-10.67v-3.6h10.68v-7.1h-10.67v-3.6z" fill="#fff"/><path d="M740.75 614.2h20.67c6.8 0 11.13 4 11.13 8.7 0 3.7-1.82 6.5-6.02 7.9v.1c4.1.9 5.34 4.2 5.56 7.4.1 2 .1 5.7 1.58 7.5h-8.4c-1.02-2-.9-5.1-1.37-7.6-.55-3.3-2.14-4.8-6.34-4.8h-8.4v12.4h-8.4v-31.6zm8.4 14.3h9.2c3.75 0 5.8-1.3 5.8-4.5 0-3-2.05-4.4-5.8-4.4h-9.2v8.9z" fill="#2e73b7"/><use xlink:href="#a" transform="matrix(1,0,0,1,700.4285714285714,660) translate(57 15.4)"/><path d="M576.8 375.3v4.7h-34.9l-4.9-5.9 39.8 1.2zM590.8 413.2v4.7c-2.8 0-5.1 2.1-5.1 4.5v-4.7c0-2.5 2.3-4.5 5.1-4.5z" fill="#9e5622"/><path d="M590.8 413.2v4.7c-2.8 0-5.1 2.1-5.1 4.5v-4.7c0-2.5 2.3-4.5 5.1-4.5z" fill="#9e5622"/><path d="M590.8 413.2v4.7c-2.8 0-5.1 2.1-5.1 4.5v-4.7c0-2.5 2.3-4.5 5.1-4.5zm-48.9-37.9v4.7c-2 0-3.6 1-4.5 2.4v-4.7c.9-1.4 2.5-2.4 4.5-2.4M537.4 377.7v4.7c-.2.3-.3.5-.4.8v-4.7c.1-.3.2-.6.4-.8M537 378.5v4.7c-.1.2-.1.5-.2.7v-4.7c.1-.3.1-.5.2-.7M536.8 379.2v5.4-4.8-.6M597.8 397.2v4.7h-35.3l-3-5.4 38.3.7zM611.8 435v4.8c-2.9 0-5.1 2-5.1 4.5v-4.7c0-2.5 2.2-4.6 5.1-4.6z" fill="#9e5622"/><path d="M611.8 435v4.8c-2.9 0-5.1 2-5.1 4.5v-4.7c0-2.5 2.2-4.6 5.1-4.6z" fill="#9e5622"/><path d="M611.8 435v4.8c-2.9 0-5.1 2-5.1 4.5v-4.7c0-2.5 2.2-4.6 5.1-4.6zm-48.9-37.8v4.7c-2 0-3.6.9-4.5 2.3v-4.7c.9-1.4 2.5-2.3 4.5-2.3M558.4 399.5v4.7c-.1.3-.3.6-.4.8v-4.7c.1-.3.3-.5.4-.8M558 400.3v4.7c-.1.3-.1.5-.2.8v-4.7c.1-.3.1-.5.2-.8M557.8 401.1v5.3-4.7-.6M536.8 411.5v4.7h-11.7l-1.8-5.8 13.5 1.1zM574 449.3v4.8c-2.8 0-5.1-2.1-5.1-4.6v-4.7c0 2.5 2.3 4.5 5.1 4.5z" fill="#9e5622"/><path d="M574 449.3v4.8c-2.8 0-5.1-2.1-5.1-4.6v-4.7c0 2.5 2.3 4.5 5.1 4.5z" fill="#9e5622"/><path d="M574 449.3v4.8c-2.8 0-5.1-2.1-5.1-4.6v-4.7c0 2.5 2.3 4.5 5.1 4.5zm-48.9-37.8v4.7c-2.8 0-5.1-2-5.1-4.5v-4.8c0 2.5 2.3 4.6 5.1 4.6M545.8 433.3h12v4.7h-12v-4.7z" fill="#9e5622"/><path d="M546.1 433.3v4.7c-2.8 0-5.1-2-5.1-4.5v-4.7c0 2.5 2.3 4.5 5.1 4.5M567.4 455.3v4.7c-2.8 0-5.1-2-5.1-4.5v-4.7c0 2.4 2.3 4.5 5.1 4.5" fill="#9e5622"/><path d="M614.4 455.3v4.7h-47l-2-6.2 49 1.5zM619.1 450.8v4.7c0 .2-.1.4-.1.6v-4.7c0-.2.1-.4.1-.6M619 451.4v4.7c0 .3-.1.5-.2.8v-4.8c.1-.2.2-.5.2-.7M618.8 452.1v4.8c-.1.2-.2.5-.4.8v-4.8c.2-.2.3-.5.4-.8" fill="#9e5622"/><path d="M618.4 452.9v4.8c-.8 1.4-2.5 2.3-4.4 2.3v-4.7c1.9 0 3.6-1 4.4-2.4" fill="#9e5622"/><path d="M571.7 360c2.8 0 5.1 2 5.1 4.5v10.8h-34.9c-2.8 0-5.1 2-5.1 4.5v31.7h-11.7c-2.8 0-5.1-2.1-5.1-4.6v-42.4c0-2.5 2.3-4.5 5.1-4.5h46.6z" fill="#f58535"/><path d="M592.7 381.9c2.8 0 5.1 2 5.1 4.5v10.8h-34.9c-2.8 0-5.1 2-5.1 4.5v31.6h-11.7c-2.8 0-5.1-2-5.1-4.5v-42.4c0-2.5 2.3-4.5 5.1-4.5h46.6z" fill="#f58535"/><path d="M614 403.8c2.8 0 5.1 2.1 5.1 4.5v42.5c0 2.4-2.3 4.5-5.1 4.5h-46.6c-2.8 0-5.1-2.1-5.1-4.5v-42.5c0-2.4 2.2-4.5 5.1-4.5H614z" fill="#f58535"/><use xlink:href="#b" transform="matrix(1,0,0,1,520,460) translate(21 14.4)"/><use xlink:href="#c" transform="matrix(1,0,0,1,520,460) translate(16.074999999999996 36)"/><path d="M350.3 320c27.7 0 50.3 21.5 50.3 48.1s-22.6 48.2-50.3 48.2c-27.8 0-50.3-21.6-50.3-48.2s22.5-48.1 50.3-48.1z" fill="#f58535"/><path d="M400.6 368.2v4.1c0 26.6-22.6 48.2-50.3 48.2-27.8 0-50.3-21.6-50.3-48.2v-4.1c0 26.5 22.5 48.1 50.3 48.1 27.7 0 50.3-21.6 50.3-48.1z" fill="#9e5622"/><path d="M398.2 382.8v4.2c-1 2.9-2.3 5.7-3.8 8.4v-4.2c1.5-2.6 2.8-5.5 3.8-8.4M394.4 391.2v4.2c-8.5 14.9-25.1 25.1-44.1 25.1-27.8 0-50.3-21.6-50.3-48.2v-4.1c0 26.5 22.5 48.1 50.3 48.1 19 0 35.6-10.1 44.1-25.1M400.6 368.2v4.1c0 2.4-.2 4.7-.5 6.9V375c.3-2.2.5-4.5.5-6.8M400.1 375v4.2c-.5 2.7-1.1 5.3-1.9 7.8v-4.2c.8-2.5 1.4-5.1 1.9-7.8" fill="#9e5622"/><path d="M382.1 351.3h-16.4v-3.2l-5 6.2-2.4-3.2-23 14.2h19.5v-3.4l10.9 4v-5.8h16.4v15.7h-16.4V370l-10.9 3.9v-3.3h-19.5l23.2 14.2 2.2-3.3 5 6.3v-3.2h16.4v15.8h-16.4v-6.3l-11.3-2.6 1.6-3.2-28.4-17.7v10.5h-18.2v-26.3h18.2v10.5l28.6-17.7-1.8-3.2 11.3-2.6v-6.3h16.4v15.8z" fill="#fff"/><use xlink:href="#a" transform="matrix(1,0,0,1,300,400) translate(50 15.4)"/><path d="M1271.58 307v4.6M1220.6 343.9v4.5c-.12.2-.24.3-.35.5v-4.6c.1-.1.23-.3.34-.4M1220.25 344.3V349.2v-4.6-.3" fill="#1e4a76"/><path d="M1270.9 346.1c-7.9-2.1-16.5-2.4-23.87-2.4-10.7 0-24.32 2-26.9 5.1l-.1-4.2c1-3.7 13.6-6.8 24.77-6.8 3.8 0 20.75 1.4 26.1 3.7" fill="#1e4a76"/><path d="M1248.7 347.8c4.7 0 8.6.3 11.83.8 6.92.9 10.6 2.6 10.6 3.6s-3.68 2.7-10.6 3.6c-3.23.5-7.14.7-11.82.7-14.5 0-22.53-2.8-22.53-4.3s8.03-4.4 22.54-4.4z" fill="#2e73b7"/><path d="M1271.13 352.2v5-4.9-.1M1271.13 352.3v5-4.9-.1M1271.13 352.4v4.9s0 .1-.1.2v-5c.1 0 .1-.1.1-.1" fill="#1e4a76"/><path d="M1271.02 352.5v5c-.67 1-4.24 2.4-10.5 3.2-3.22.5-7.13.8-11.8.8-14.52 0-22.55-2.9-22.55-4.4v-4.9c0 1.5 8.03 4.3 22.54 4.3 4.7 0 8.6-.2 11.83-.7 6.25-.8 9.82-2.3 10.5-3.3" fill="#1e4a76"/><path d="M1271.13 352.2v4.9c0 1-3.68 2.7-10.6 3.6-3.23.5-7.14.8-11.82.8-14.5 0-22.53-2.9-22.53-4.4v-4.9c0 1.5 8.03 4.3 22.54 4.3 4.7 0 8.6-.2 11.83-.7 6.92-.9 10.6-2.6 10.6-3.6zM1271.58 390.7v5.1-5-.1M1271.58 390.9v4.9l-.1.1V391c0-.1.1-.1.1-.1M1271.47 391v4.9c0 .1 0 .1-.1.2v-4.9c.1-.1.1-.1.1-.2" fill="#1e4a76"/><path d="M1250.27 394.9c-8.15 0-14.5-.6-18.97-1.8v-1.9c-2.9-1.1-4.8-2.4-5.02-3.3v8c.44.6 1.45 1.2 4.9 2.2 4.58 1.1 10.72 1.9 18.98 1.9 15.17 0 21.42-2.8 21.42-4.3v-5c0 1.6-6.14 4.2-21.3 4.2zM1168.8 393v4.6c-4.67 0-8.47-3.2-8.47-7l-.22-4.5c0 3.9 4.03 6.9 8.7 6.9z" fill="#1e4a76"/><path d="M1223.38 393v4.5l-54.57.1-1.2-6z" fill="#1e4a76"/><path d="M1271.02 342.1c-8.03-2.3-21.3-2.4-25.1-2.4-10.94.2-23.55 2.3-25.67 5.1V390.6c0 .8 2 1.8 3.13 2.4h-54.9c-4.7 0-8.48-3.1-8.48-7v-79c0-3.9 3.8-7 8.48-7h94.28c4.8 0 8.6 3.1 8.6 7" fill="#2e73b7"/><path d="M1271.58 360.7v30c0 1.6-6.25 4.4-21.42 4.4-8.26 0-14.5-.8-18.53-1.8-3-.8-5.13-1.7-5.35-2.4V361c4.35 2.3 13.4 3.4 22.43 3.4h3.69c.77-.1 1.55-.1 2.33-.1.45-.1.78-.1 1.12-.1.67-.1 1.22-.1 1.78-.1.34-.1.67-.1 1-.2.56 0 1.23-.1 1.9-.2 4.9-.6 8.7-1.7 11.05-3z" fill="#2e73b7"/><path d="M1243.35 381.6c0 3 2.8 4.1 5.9 4.1 2.13 0 5.26-.5 5.26-2.7 0-2.4-4-2.8-8.03-3.7-3.9-.9-7.92-2.1-7.92-6.3 0-4.6 5.13-6.7 10.04-6.7 5.57 0 10.7 2 10.7 7.1h-5.7c-.2-2.6-2.44-3.3-5.34-3.3-1.9 0-4.02.6-4.02 2.5 0 1.7 1.23 1.9 8.04 3.3 1.9.5 7.92 1.5 7.92 6.5 0 4.1-3.8 7.1-11.16 7.1-5.9 0-11.5-2.4-11.38-7.9h5.7z" fill="#fff"/><use xlink:href="#a" transform="matrix(1,0,0,1,1160,380) translate(56 15.4)"/><path d="M1080 450l1.18-.03 1.14-.08 1.1-.15 1.1-.2 1.05-.24 1.05-.3 1.05-.34 1.05-.4 1.05-.5 1.07-.54 1.1-.63 1.1-.73 1.15-.83 1.18-.95 1.25-1.12 1.32-1.3 1.4-1.52 1.53-1.83 1.67-2.22 1.87-2.75 2.16-3.57 2.62-4.86 3.57-7.5 18.03-42.34 2.62-4.86 2.16-3.57 1.87-2.76 1.67-2.23 1.52-1.83 1.4-1.52 1.33-1.3 1.25-1.1 1.2-.96 1.14-.83 1.1-.72 1.1-.62 1.07-.55 1.05-.48 1.05-.4 1.05-.36 1.05-.3 1.06-.25 1.08-.2 1.1-.14 1.14-.07 1.18-.03" stroke="#000" stroke-width="2" fill="none"/><path d="M1080.33 450.95l-1.46.5-.87-.64-1.05-.44-.1-.33 2.83-.98zM1148 359l-3-8.76 15-.24z"/><path d="M1160 351.25l-12.5 9.4-3.9-11.4 16.4-.25zm-13.6-.03l2.1 6.16 8.44-6.33z"/><path d="M1080 450l5.7.12 5.6.37 5.5.58 5.38.82 5.3 1.04 5.17 1.26 5.06 1.46 4.95 1.65 4.8 1.86 4.67 2.03 4.53 2.2 4.38 2.37 4.23 2.54 4.08 2.7 3.92 2.83 3.75 2.97 3.6 3.1 3.42 3.22 3.25 3.34 3.1 3.46 2.9 3.55 2.74 3.67 2.57 3.75 2.4 3.85 2.22 3.94 2.04 4.02 1.87 4.12 1.7 4.2 1.53 4.3 1.34 4.4 1.16 4.48.98 4.57.8 4.66.6 4.77.4 4.87.17 5 .02 1.9" stroke="#000" stroke-width="2" fill="none"/><path d="M1080.06 449l-.12 2-1.83-.1-.1-.1-1.03-.43.1-1.55zM1195.8 560l-5.58-13.93 9.25-.6z"/><path d="M1196.82 560h-2.1l-5.94-14.83 12-.8zm-5.16-13.02l3.9 9.8 2.6-10.23z"/><path d="M686.8 175.3v4.7h-34.9l-4.9-5.9 39.8 1.2zM700.8 213.2v4.7c-2.8 0-5.1 2.1-5.1 4.5v-4.7c0-2.5 2.3-4.5 5.1-4.5z" fill="#9e5622"/><path d="M700.8 213.2v4.7c-2.8 0-5.1 2.1-5.1 4.5v-4.7c0-2.5 2.3-4.5 5.1-4.5z" fill="#9e5622"/><path d="M700.8 213.2v4.7c-2.8 0-5.1 2.1-5.1 4.5v-4.7c0-2.5 2.3-4.5 5.1-4.5zm-48.9-37.9v4.7c-2 0-3.6 1-4.5 2.4v-4.7c.9-1.4 2.5-2.4 4.5-2.4M647.4 177.7v4.7c-.2.3-.3.5-.4.8v-4.7c.1-.3.2-.6.4-.8M647 178.5v4.7c-.1.2-.1.5-.2.7v-4.7c.1-.3.1-.5.2-.7M646.8 179.2v5.4-4.8-.6M707.8 197.2v4.7h-35.3l-3-5.4 38.3.7zM721.8 235v4.8c-2.9 0-5.1 2-5.1 4.5v-4.7c0-2.5 2.2-4.6 5.1-4.6z" fill="#9e5622"/><path d="M721.8 235v4.8c-2.9 0-5.1 2-5.1 4.5v-4.7c0-2.5 2.2-4.6 5.1-4.6z" fill="#9e5622"/><path d="M721.8 235v4.8c-2.9 0-5.1 2-5.1 4.5v-4.7c0-2.5 2.2-4.6 5.1-4.6zm-48.9-37.8v4.7c-2 0-3.6.9-4.5 2.3v-4.7c.9-1.4 2.5-2.3 4.5-2.3M668.4 199.5v4.7c-.1.3-.3.6-.4.8v-4.7c.1-.3.3-.5.4-.8M668 200.3v4.7c-.1.3-.1.5-.2.8v-4.7c.1-.3.1-.5.2-.8M667.8 201.1v5.3-4.7-.6M646.8 211.5v4.7h-11.7l-1.8-5.8 13.5 1.1zM684 249.3v4.8c-2.8 0-5.1-2.1-5.1-4.6v-4.7c0 2.5 2.3 4.5 5.1 4.5z" fill="#9e5622"/><path d="M684 249.3v4.8c-2.8 0-5.1-2.1-5.1-4.6v-4.7c0 2.5 2.3 4.5 5.1 4.5z" fill="#9e5622"/><path d="M684 249.3v4.8c-2.8 0-5.1-2.1-5.1-4.6v-4.7c0 2.5 2.3 4.5 5.1 4.5zm-48.9-37.8v4.7c-2.8 0-5.1-2-5.1-4.5v-4.8c0 2.5 2.3 4.6 5.1 4.6M655.8 233.3h12v4.7h-12v-4.7z" fill="#9e5622"/><path d="M656.1 233.3v4.7c-2.8 0-5.1-2-5.1-4.5v-4.7c0 2.5 2.3 4.5 5.1 4.5M677.4 255.3v4.7c-2.8 0-5.1-2-5.1-4.5v-4.7c0 2.4 2.3 4.5 5.1 4.5" fill="#9e5622"/><path d="M724.4 255.3v4.7h-47l-2-6.2 49 1.5zM729.1 250.8v4.7c0 .2-.1.4-.1.6v-4.7c0-.2.1-.4.1-.6M729 251.4v4.7c0 .3-.1.5-.2.8v-4.8c.1-.2.2-.5.2-.7M728.8 252.1v4.8c-.1.2-.2.5-.4.8v-4.8c.2-.2.3-.5.4-.8" fill="#9e5622"/><path d="M728.4 252.9v4.8c-.8 1.4-2.5 2.3-4.4 2.3v-4.7c1.9 0 3.6-1 4.4-2.4" fill="#9e5622"/><path d="M681.7 160c2.8 0 5.1 2 5.1 4.5v10.8h-34.9c-2.8 0-5.1 2-5.1 4.5v31.7h-11.7c-2.8 0-5.1-2.1-5.1-4.6v-42.4c0-2.5 2.3-4.5 5.1-4.5h46.6z" fill="#f58535"/><path d="M702.7 181.9c2.8 0 5.1 2 5.1 4.5v10.8h-34.9c-2.8 0-5.1 2-5.1 4.5v31.6h-11.7c-2.8 0-5.1-2-5.1-4.5v-42.4c0-2.5 2.3-4.5 5.1-4.5h46.6z" fill="#f58535"/><path d="M724 203.8c2.8 0 5.1 2.1 5.1 4.5v42.5c0 2.4-2.3 4.5-5.1 4.5h-46.6c-2.8 0-5.1-2.1-5.1-4.5v-42.5c0-2.4 2.2-4.5 5.1-4.5H724z" fill="#f58535"/><use xlink:href="#d" transform="matrix(1,0,0,1,630,260) translate(5.049999999999997 14.4)"/><use xlink:href="#e" transform="matrix(1,0,0,1,630,260) translate(43 14.4)"/><path d="M870.8 145.3v4.7h-34.9l-4.9-5.9 39.8 1.2zM884.8 183.2v4.7c-2.8 0-5.1 2.1-5.1 4.5v-4.7c0-2.5 2.3-4.5 5.1-4.5z" fill="#9e5622"/><path d="M884.8 183.2v4.7c-2.8 0-5.1 2.1-5.1 4.5v-4.7c0-2.5 2.3-4.5 5.1-4.5z" fill="#9e5622"/><path d="M884.8 183.2v4.7c-2.8 0-5.1 2.1-5.1 4.5v-4.7c0-2.5 2.3-4.5 5.1-4.5zm-48.9-37.9v4.7c-2 0-3.6 1-4.5 2.4v-4.7c.9-1.4 2.5-2.4 4.5-2.4M831.4 147.7v4.7c-.2.3-.3.5-.4.8v-4.7c.1-.3.2-.6.4-.8M831 148.5v4.7c-.1.2-.1.5-.2.7v-4.7c.1-.3.1-.5.2-.7M830.8 149.2v5.4-4.8-.6M891.8 167.2v4.7h-35.3l-3-5.4 38.3.7zM905.8 205v4.8c-2.9 0-5.1 2-5.1 4.5v-4.7c0-2.5 2.2-4.6 5.1-4.6z" fill="#9e5622"/><path d="M905.8 205v4.8c-2.9 0-5.1 2-5.1 4.5v-4.7c0-2.5 2.2-4.6 5.1-4.6z" fill="#9e5622"/><path d="M905.8 205v4.8c-2.9 0-5.1 2-5.1 4.5v-4.7c0-2.5 2.2-4.6 5.1-4.6zm-48.9-37.8v4.7c-2 0-3.6.9-4.5 2.3v-4.7c.9-1.4 2.5-2.3 4.5-2.3M852.4 169.5v4.7c-.1.3-.3.6-.4.8v-4.7c.1-.3.3-.5.4-.8M852 170.3v4.7c-.1.3-.1.5-.2.8v-4.7c.1-.3.1-.5.2-.8M851.8 171.1v5.3-4.7-.6M830.8 181.5v4.7h-11.7l-1.8-5.8 13.5 1.1zM868 219.3v4.8c-2.8 0-5.1-2.1-5.1-4.6v-4.7c0 2.5 2.3 4.5 5.1 4.5z" fill="#9e5622"/><path d="M868 219.3v4.8c-2.8 0-5.1-2.1-5.1-4.6v-4.7c0 2.5 2.3 4.5 5.1 4.5z" fill="#9e5622"/><path d="M868 219.3v4.8c-2.8 0-5.1-2.1-5.1-4.6v-4.7c0 2.5 2.3 4.5 5.1 4.5zm-48.9-37.8v4.7c-2.8 0-5.1-2-5.1-4.5v-4.8c0 2.5 2.3 4.6 5.1 4.6M839.8 203.3h12v4.7h-12v-4.7z" fill="#9e5622"/><path d="M840.1 203.3v4.7c-2.8 0-5.1-2-5.1-4.5v-4.7c0 2.5 2.3 4.5 5.1 4.5M861.4 225.3v4.7c-2.8 0-5.1-2-5.1-4.5v-4.7c0 2.4 2.3 4.5 5.1 4.5" fill="#9e5622"/><path d="M908.4 225.3v4.7h-47l-2-6.2 49 1.5zM913.1 220.8v4.7c0 .2-.1.4-.1.6v-4.7c0-.2.1-.4.1-.6M913 221.4v4.7c0 .3-.1.5-.2.8v-4.8c.1-.2.2-.5.2-.7M912.8 222.1v4.8c-.1.2-.2.5-.4.8v-4.8c.2-.2.3-.5.4-.8" fill="#9e5622"/><path d="M912.4 222.9v4.8c-.8 1.4-2.5 2.3-4.4 2.3v-4.7c1.9 0 3.6-1 4.4-2.4" fill="#9e5622"/><path d="M865.7 130c2.8 0 5.1 2 5.1 4.5v10.8h-34.9c-2.8 0-5.1 2-5.1 4.5v31.7h-11.7c-2.8 0-5.1-2.1-5.1-4.6v-42.4c0-2.5 2.3-4.5 5.1-4.5h46.6z" fill="#f58535"/><path d="M886.7 151.9c2.8 0 5.1 2 5.1 4.5v10.8h-34.9c-2.8 0-5.1 2-5.1 4.5v31.6h-11.7c-2.8 0-5.1-2-5.1-4.5v-42.4c0-2.5 2.3-4.5 5.1-4.5h46.6z" fill="#f58535"/><path d="M908 173.8c2.8 0 5.1 2.1 5.1 4.5v42.5c0 2.4-2.3 4.5-5.1 4.5h-46.6c-2.8 0-5.1-2.1-5.1-4.5v-42.5c0-2.4 2.2-4.5 5.1-4.5H908z" fill="#f58535"/><use xlink:href="#d" transform="matrix(1,0,0,1,814,230) translate(1.0749999999999957 14.4)"/><use xlink:href="#f" transform="matrix(1,0,0,1,814,230) translate(39.025 14.4)"/><path d="M729.1 220l4.9-.14 4.27-.38 3.8-.56 3.45-.72 3.23-.87 3.1-1.04 3.04-1.24 3.13-1.5 3.5-1.9 4.63-2.92 15.42-10.4 3.5-1.9 3.13-1.5 3.06-1.23 3.1-1.03 3.22-.87 3.45-.72 3.8-.56 4.26-.38 4.9-.14" stroke="#000" stroke-width="2" fill="none"/><path d="M729.2 221h-.1v-1zM814 190l-13.74 6.02-.9-9.22z"/><path d="M817.22 189.68l-17.82 7.8-1.2-11.95zm-16.1 4.87l9.66-4.23-10.3-2.25z"/><path d="M913.1 190H994" stroke="#000" stroke-width="2" fill="none"/><path d="M913.1 191v-2zM994 190l-14.27 4.64v-9.28z"/><path d="M997.24 190l-18.5 6v-12zm-16.5 3.26l10.02-3.26-10.03-3.26z"/><path d="M570 360l.55-42.25.98-15.86 1.17-11.32 1.3-8.8 1.35-7.13 1.4-5.96 1.4-5.07 1.43-4.38 1.42-3.82 1.4-3.37 1.42-3 1.4-2.7 1.4-2.42 1.4-2.2 1.4-2 1.4-1.85 1.4-1.7 1.4-1.57 1.42-1.44 1.43-1.36 1.45-1.25 1.47-1.17 1.5-1.1 1.52-1 1.56-.95 1.6-.88 1.65-.82 1.7-.76 1.78-.7 1.86-.64 1.92-.6 2.02-.5 2.13-.46 2.25-.38 2.4-.3 2.54-.2 2.73-.12L630 220" stroke="#000" stroke-width="2" fill="none"/><path d="M570.14 360H569zM630 220l-13.6 6.34-1.12-9.2z"/><path d="M633.2 219.6l-17.62 8.23-1.46-11.94zm-15.97 5.25l9.56-4.46-10.36-2.02z"/><path d="M619.1 420l55.03 1.07 39.3 2.44 33.86 3.57 138.36 19.42 39.3 2.43L980 450" stroke="#000" stroke-width="2" fill="none"/><path d="M619.12 419l-.02 1.28V419zM980 450l-14.35 4.36.18-9.27z"/><path d="M980 448.94v2.1l-15.38 4.67.23-12zM966.67 453l10.1-3.06-9.97-3.46z"/><path d="M614.4 460l2.1.04 1.67.1 1.37.15 1.15.16.96.18.84.2.72.2.63.2.55.2.5.22.44.2.4.2.35.22.32.2.3.2.27.22.24.2.24.22.2.2.2.23.2.2.18.23.16.23.15.24.14.23.15.24.12.26.1.26.12.27.1.27.07.3.08.3.07.32.06.33.05.37.03.4.02.4v.47l-.03.5-.04.54-.07.62-.1.68-.18.77-.22.88-.3 1-.43 1.2-.57 1.46-.8 1.8-1.14 2.28-1.72 3.1-2.83 4.66-6.38 9.52-22.78 33.03-5.08 8.34-3.5 6.36-2.6 5.2-1.96 4.4-1.5 3.82-1.2 3.37-.9 3-.7 2.74-.53 2.5-.4 2.3-.26 2.12-.17 1.98-.08 1.87v.9" stroke="#000" stroke-width="2" fill="none"/><path d="M614.4 459.98l-.3.98-2.86-.88.03-.08h3.13zM579.96 566.6L573.2 580l-2.4-14.8z"/><path d="M581.47 565.82L574.33 580h-2.13l-2.62-16zm-7.77 10.98l4.74-9.42-6.44-1z"/><path d="M614.4 460l7.68.16 7.6.48 7.5.8 7.36 1.07 7.18 1.38 6.98 1.64 6.76 1.9 6.5 2.1 6.27 2.33 6 2.52 5.7 2.68 5.44 2.84 5.15 2.97 4.88 3.1 4.6 3.2 4.34 3.28 4.08 3.38 3.83 3.45 3.6 3.5 3.35 3.6 3.14 3.63 2.93 3.7 2.72 3.75 2.5 3.8 2.35 3.85 2.15 3.92 1.97 3.97 1.8 4.03 1.63 4.1 1.46 4.2 1.3 4.26 1.1 4.35.95 4.46.78 4.58.6 4.7.4 4.8.2 4.98.03 2.54" stroke="#000" stroke-width="2" fill="none"/><path d="M614.4 459.98l-.04 1.02-3-.12.04-.88h3zM757.2 580l-5.53-13.94 9.25-.6z"/><path d="M758.25 580h-2.1l-5.92-14.84 12-.78zm-5.15-13.03l3.9 9.8 2.6-10.22z"/><path d="M619.1 438l23.34.48 20.85 1.3 18.9 2 17.36 2.55 16.16 3.07 15.24 3.58 14.57 4.06 14.14 4.6 14 5.2 14.12 5.95 14.73 6.93 16.16 8.46 19.64 11.36L940.4 561.8l16.17 8.47 14.74 6.94 14.14 5.96 14 5.2 14.13 4.6 14.57 4.06 15.24 3.58 16.16 3.07 17.37 2.56 18.9 2 20.86 1.3 23.33.47" stroke="#000" stroke-width="2" fill="none"/><path d="M619.13 437l-.03 1.38V437zM1140 610l-14.36 4.34.2-9.27z"/><path d="M1140 608.94v2.1l-15.4 4.66.26-12.02zm-13.33 4.05l10.1-3.07-9.97-3.46z"/><path d="M597.8 387.33l102.67-1.97 70.85-4.4 73.97-7.9 141.18-16.7 70.85-4.4L1160 350" stroke="#000" stroke-width="2" fill="none"/><path d="M597.83 388.33h-.03v-1.44zm-.04-1.98v-.02zM1160 350l-14.17 4.9-.18-9.26z"/><path d="M1160 348.95v2.1l-15.15 5.25-.23-12.02zm-13.2 4.56l9.96-3.44-10.1-3.06z"/><path d="M399.94 370l3.6.25 3.44.4 3.35.52 3.28.65 3.25.8 3.24.92 3.26 1.1 3.33 1.26 3.46 1.5 3.7 1.77 4.04 2.16 4.7 2.78 6.3 4.1 26.4 18.2 4.57 2.7 3.92 2.08 3.54 1.7 3.32 1.44 3.18 1.2 3.1 1.05 3.07.88 3.07.74 3.08.6 3.14.5 3.2.36 3.34.24 3.47.1h.7M399.94 370l-2.97-.42" stroke="#000" stroke-width="2" fill="none"/><path d="M520 420l-14.64 3.28.87-9.23z"/><path d="M523.22 420.3l-18.98 4.25 1.13-11.97zM506.5 422l10.28-2.3-9.68-4.2z"/><path d="M197.96 263.08l2.67 1.17 2.56 1.28 2.47 1.4 2.42 1.5 2.36 1.6 2.33 1.8 2.3 1.92 2.33 2.13 2.34 2.36 2.4 2.64 2.45 3 2.58 3.46 2.8 4.13 3.13 5.16 3.9 7.17 18.36 37.13 2.65 4.36 2.3 3.38 2.05 2.77 1.93 2.34 1.82 2 1.76 1.8 1.7 1.55 1.7 1.4 1.66 1.27 1.66 1.15 1.68 1.03 1.7.95 1.7.85 1.78.78 1.82.7 1.88.63 1.97.57 2.07.48 2.2.4 2.3.3 2.5.23 2.7.1 1.08.02" stroke="#000" stroke-width="2" fill="none"/><path d="M196.5 261.1l-.73.94.72-.94zM300 370l-14.77 2.6 1.3-9.18z"/><path d="M300 368.9V371l-15.95 2.8 1.67-11.9zm-13.6 2.48l10.4-1.83-9.48-4.63z"/><path d="M1094.3 133.56v5.76c0 7.56-22.4 13.56-50.1 13.56-27.8 0-50.2-6-50.2-13.56v-5.76c0 7.44 22.4 13.56 50.2 13.56 27.7 0 50.1-6.12 50.1-13.56zM1094.3 133.56V139.92v-5.88-.48" fill="#91352b"/><path d="M1094.3 134.04v5.88c-.1.24-.1.36-.2.6v-5.88c.1-.12.1-.36.2-.6M1094.1 134.64v5.88c0 .24-.2.6-.3.84v-5.88c.1-.24.3-.48.3-.84M1093.8 135.48v5.88c-3.5 6.6-24.4 11.52-49.6 11.52-27.8 0-50.2-6-50.2-13.56v-5.76c0 7.44 22.4 13.56 50.2 13.56 25.2 0 46-5.04 49.6-11.64" fill="#91352b"/><path d="M1044.2 120c27.7 0 50.1 6 50.1 13.56 0 7.44-22.4 13.56-50.1 13.56-27.8 0-50.2-6.12-50.2-13.56 0-7.56 22.4-13.56 50.2-13.56z" fill="#e15343"/><path d="M1094 144v5.76l-16.4 80.64-1.3-3.84L1094 144zM1010.7 224.52v5.88l-16.4-80.64V144l16.4 80.52z" fill="#91352b"/><path d="M1077.6 224.52v5.88c0 5.04-15 9.12-33.4 9.12-18.5 0-33.5-4.08-33.5-9.12v-5.88c0 5.04 15 9.12 33.5 9.12 18.4 0 33.4-4.08 33.4-9.12zM1077.6 224.52v6.24-5.88-.36" fill="#91352b"/><path d="M1077.6 224.88v5.88c-.1.12-.1.24-.1.36v-5.76c0-.12 0-.36.1-.48M1077.5 225.36v5.76c-.1.24-.2.48-.3.6v-5.88c.1-.12.2-.36.3-.48" fill="#91352b"/><path d="M1078.1 223.92l-.9 7.8c-2.3 4.44-16.2 7.8-33 7.8-18.5 0-33.5-4.08-33.5-9.12v-5.88c0 5.04 15 9.12 33.5 9.12 16.8 0 30.7-3.36 33-7.8" fill="#91352b"/><path d="M1044.2 156c25.9 0 47.2-5.28 49.8-12l-16.4 80.52c0 5.04-15 9.12-33.4 9.12-18.5 0-33.5-4.08-33.5-9.12L994.3 144c2.7 6.72 24 12 49.9 12z" fill="#e15343"/><path d="M1032.8 164.64h20.9v24h-20.9v-24zM1026.5 197.16c5.7 0 10.3 5.28 10.3 11.88 0 6.48-4.6 11.76-10.3 11.76-5.7 0-10.3-5.28-10.3-11.76 0-6.6 4.6-11.88 10.3-11.88zM1069.8 220.32h-20.6l10.3-22.08 10.3 22.08z" fill="#fff"/><use xlink:href="#g" transform="matrix(1,0,0,1,994,240) translate(39 14.4)"/><path d="M198.96 530.4v4.6c0 3-2.96 5.5-6.72 5.5V536c3.76 0 6.72-2.5 6.72-5.6zM198.96 530.4V535.8v-4.6-.8" fill="#7f8080"/><path d="M198.96 531.2v4.6c-.08.3-.16.6-.32.9v-4.6c.16-.3.24-.6.32-.9M198.64 532.1v4.6c-.08.3-.24.6-.48.9v-4.5c.24-.3.4-.6.48-1M198.16 533.1v4.5c-1.12 1.7-3.36 2.9-5.92 2.9V536c2.56 0 4.8-1.2 5.92-2.9" fill="#7f8080"/><path d="M193.44 535.5l-1.2 5H126.8l-1.44-5.8 68.08.8z" fill="#7f8080"/><path d="M126.8 536v4.5c-3.76 0-6.8-2.5-6.8-5.5v-4.6c0 3.1 3.04 5.6 6.8 5.6z" fill="#7f8080"/><path d="M126.8 536v4.5c-3.76 0-6.8-2.5-6.8-5.5v-4.6c0 3.1 3.04 5.6 6.8 5.6" fill="#7f8080"/><path d="M192.24 440c3.76 0 6.72 2.5 6.72 5.6v84.8c0 3.1-2.96 5.6-6.72 5.6H126.8c-3.76 0-6.8-2.5-6.8-5.6v-84.8c0-3.1 3.04-5.6 6.8-5.6h65.44z" fill="#c5c6c7"/><path d="M139.76 446.2h39.36c2.48 0 4.4 1.6 4.4 3.6s-1.92 3.6-4.4 3.6h-39.36c-2.48 0-4.4-1.6-4.4-3.6s1.92-3.6 4.4-3.6zm19.68 87.3c-4.24 0-7.68-2.9-7.68-6.4 0-3.5 3.44-6.3 7.68-6.3s7.68 2.8 7.68 6.3-3.44 6.4-7.68 6.4zm31.84-20.3c0 1.9-2 3.3-4.48 3.3h-54.72c-2.48 0-4.48-1.4-4.48-3.3v-50.5c0-1.8 2-3.3 4.48-3.3h54.72c2.48 0 4.48 1.5 4.48 3.3v50.5z" fill="#fff"/><use xlink:href="#h" transform="matrix(1,0,0,1,120,540) translate(13.574999999999996 14.4)"/><path d="M107.6 295.1v4.4c-4.2 0-7.6-3.4-7.6-7.6v-4.3c0 4.2 3.4 7.5 7.6 7.5z" fill="#7f8080"/><path d="M107.6 295.1v4.4c-4.2 0-7.6-3.4-7.6-7.6v-4.3c0 4.2 3.4 7.5 7.6 7.5M199.3 287.6v4.3c0 4.2-3.4 7.6-7.6 7.6v-4.4c4.2 0 7.6-3.3 7.6-7.5z" fill="#7f8080"/><path d="M199.3 287.6v4.3c0 .4-.1.7-.1 1.1v-4.3c0-.4.1-.7.1-1.1M199.2 288.7v4.3l-.3 1.2v-4.3l.3-1.2" fill="#7f8080"/><path d="M198.9 289.9v4.3c-.1.5-.3.9-.6 1.3v-4.3c.3-.4.5-.8.6-1.3M198.3 291.2v4.3c-1.3 2.4-3.7 4-6.6 4v-4.4c2.9 0 5.4-1.5 6.6-3.9" fill="#7f8080"/><path d="M193.2 294.5l-1.5 5h-84.1l-1.1-5.5 86.7.5z" fill="#7f8080"/><path d="M191.7 274c4.2 0 7.6 3.4 7.6 7.5v6.1c0 4.2-3.4 7.5-7.6 7.5h-84.1c-4.2 0-7.6-3.3-7.6-7.5v-6.1c0-4.1 3.4-7.5 7.6-7.5h84.1zm-3.4 13.6c1.7 0 3.1-1.4 3.1-3 0-1.7-1.4-3-3.1-3h-31.4c-1.7 0-3.1 1.3-3.1 3 0 1.6 1.4 3 3.1 3h31.4" fill="#c5c6c7"/><path d="M111.5 265.4v4.3c-6.3 0-11.4-5.1-11.4-11.4V254c0 6.3 5.1 11.4 11.4 11.4z" fill="#7f8080"/><path d="M111.5 265.4v4.3c-6.3 0-11.4-5.1-11.4-11.4V254c0 6.3 5.1 11.4 11.4 11.4M199.1 254v4.3c0 6.3-5.1 11.4-11.5 11.4v-4.3c6.4 0 11.5-5.1 11.5-11.4z" fill="#7f8080"/><path d="M199.1 254v4.3c0 .6 0 1.1-.1 1.6v-4.3c.1-.5.1-1 .1-1.6M199 255.6v4.3c-.1.7-.2 1.3-.4 1.9v-4.3c.2-.6.3-1.2.4-1.9M198.6 257.5v4.3c-.2.7-.5 1.4-.9 2v-4.3c.4-.7.7-1.3.9-2M197.7 259.5v4.3c-1.9 3.5-5.7 5.9-10.1 5.9v-4.3c4.4 0 8.2-2.4 10.1-5.9" fill="#7f8080"/><path d="M190 264.4l-2.4 5.3h-76.1l-1.3-5.5 79.8.2z" fill="#7f8080"/><path d="M187.6 200c6.4 0 11.5 5.1 11.5 11.4V254c0 6.3-5.1 11.4-11.5 11.4h-76.1c-6.3 0-11.4-5.1-11.4-11.4v-42.6c0-6.3 5.1-11.4 11.4-11.4h76.1zm3.5 54v-42.6c0-1.9-1.6-3.4-3.5-3.4h-76.1c-1.9 0-3.4 1.5-3.4 3.4V254c0 1.9 1.5 3.4 3.4 3.4h76.1c1.9 0 3.5-1.5 3.5-3.4" fill="#c5c6c7"/><use xlink:href="#i" transform="matrix(1,0,0,1,100,300) translate(31.700000000000003 14.4)"/><path d="M160 440l.06-3.08.18-2.88.3-2.72.37-2.57.47-2.44.55-2.32.62-2.24.7-2.14.77-2.07.85-2 .92-1.95 1-1.9 1.06-1.85 1.15-1.8 1.24-1.8 1.34-1.75 1.43-1.74 1.55-1.73 1.67-1.7 1.82-1.7 1.97-1.7 2.16-1.7 2.34-1.7 2.57-1.72 2.84-1.7 3.15-1.74 3.5-1.73 3.93-1.74 4.43-1.75 5.05-1.74 5.8-1.75 6.7-1.7 7.92-1.7 9.46-1.58 11.57-1.45 14.66-1.22 19.93-.8 14-.15" stroke="#000" stroke-width="2" fill="none"/><path d="M160.02 440H159v-.1zM300 370l-14.2 4.8-.12-9.26z"/><path d="M300 368.95v2.1l-15.2 5.14-.14-12.03zm-13.23 4.47l10-3.38-10.07-3.14z"/><defs><path d="M30 0v-248h33v221h125V0H30" id="j"/><path d="M100-194c63 0 86 42 84 106H49c0 40 14 67 53 68 26 1 43-12 49-29l28 8c-11 28-37 45-77 45C44 4 14-33 15-96c1-61 26-98 85-98zm52 81c6-60-76-77-97-28-3 7-6 17-6 28h103" id="k"/><path d="M177-190C167-65 218 103 67 71c-23-6-38-20-44-43l32-5c15 47 100 32 89-28v-30C133-14 115 1 83 1 29 1 15-40 15-95c0-56 16-97 71-98 29-1 48 16 59 35 1-10 0-23 2-32h30zM94-22c36 0 50-32 50-73 0-42-14-75-50-75-39 0-46 34-46 75s6 73 46 73" id="l"/><path d="M141-36C126-15 110 5 73 4 37 3 15-17 15-53c-1-64 63-63 125-63 3-35-9-54-41-54-24 1-41 7-42 31l-33-3c5-37 33-52 76-52 45 0 72 20 72 64v82c-1 20 7 32 28 27v20c-31 9-61-2-59-35zM48-53c0 20 12 33 32 33 41-3 63-29 60-74-43 2-92-5-92 41" id="m"/><path d="M96-169c-40 0-48 33-48 73s9 75 48 75c24 0 41-14 43-38l32 2c-6 37-31 61-74 61-59 0-76-41-82-99-10-93 101-131 147-64 4 7 5 14 7 22l-32 3c-4-21-16-35-41-35" id="n"/><path d="M179-190L93 31C79 59 56 82 12 73V49c39 6 53-20 64-50L1-190h34L92-34l54-156h33" id="o"/><g id="b"><use transform="matrix(0.05,0,0,0.05,0,0)" xlink:href="#j"/><use transform="matrix(0.05,0,0,0.05,10,0)" xlink:href="#k"/><use transform="matrix(0.05,0,0,0.05,20,0)" xlink:href="#l"/><use transform="matrix(0.05,0,0,0.05,30,0)" xlink:href="#m"/><use transform="matrix(0.05,0,0,0.05,40,0)" xlink:href="#n"/><use transform="matrix(0.05,0,0,0.05,49,0)" xlink:href="#o"/></g><path d="M240 0l2-218c-23 76-54 145-80 218h-23L58-218 59 0H30v-248h44l77 211c21-75 51-140 76-211h43V0h-30" id="p"/><path d="M100-194c62-1 85 37 85 99 1 63-27 99-86 99S16-35 15-95c0-66 28-99 85-99zM99-20c44 1 53-31 53-75 0-43-8-75-51-75s-53 32-53 75 10 74 51 75" id="q"/><path d="M117-194c89-4 53 116 60 194h-32v-121c0-31-8-49-39-48C34-167 62-67 57 0H25l-1-190h30c1 10-1 24 2 32 11-22 29-35 61-36" id="r"/><path d="M24 0v-261h32V0H24" id="s"/><path d="M24-231v-30h32v30H24zM24 0v-190h32V0H24" id="t"/><path d="M59-47c-2 24 18 29 38 22v24C64 9 27 4 27-40v-127H5v-23h24l9-43h21v43h35v23H59v120" id="u"/><path d="M106-169C34-169 62-67 57 0H25v-261h32l-1 103c12-21 28-36 61-36 89 0 53 116 60 194h-32v-121c2-32-8-49-39-48" id="v"/><g id="c"><use transform="matrix(0.05,0,0,0.05,0,0)" xlink:href="#p"/><use transform="matrix(0.05,0,0,0.05,14.950000000000001,0)" xlink:href="#q"/><use transform="matrix(0.05,0,0,0.05,24.950000000000003,0)" xlink:href="#r"/><use transform="matrix(0.05,0,0,0.05,34.95,0)" xlink:href="#q"/><use transform="matrix(0.05,0,0,0.05,44.95,0)" xlink:href="#s"/><use transform="matrix(0.05,0,0,0.05,48.900000000000006,0)" xlink:href="#t"/><use transform="matrix(0.05,0,0,0.05,52.85,0)" xlink:href="#u"/><use transform="matrix(0.05,0,0,0.05,57.85,0)" xlink:href="#v"/></g><path d="M127-220V0H93v-220H8v-28h204v28h-85" id="w"/><path d="M141 0L90-78 38 0H4l68-98-65-92h35l48 74 47-74h35l-64 92 68 98h-35" id="x"/><g id="d"><use transform="matrix(0.05,0,0,0.05,0,0)" xlink:href="#w"/><use transform="matrix(0.05,0,0,0.05,8.950000000000001,0)" xlink:href="#k"/><use transform="matrix(0.05,0,0,0.05,18.950000000000003,0)" xlink:href="#x"/><use transform="matrix(0.05,0,0,0.05,27.950000000000003,0)" xlink:href="#u"/></g><path d="M212-179c-10-28-35-45-73-45-59 0-87 40-87 99 0 60 29 101 89 101 43 0 62-24 78-52l27 14C228-24 195 4 139 4 59 4 22-46 18-125c-6-104 99-153 187-111 19 9 31 26 39 46" id="y"/><g id="e"><use transform="matrix(0.05,0,0,0.05,0,0)" xlink:href="#y"/><use transform="matrix(0.05,0,0,0.05,12.950000000000001,0)" xlink:href="#m"/><use transform="matrix(0.05,0,0,0.05,22.950000000000003,0)" xlink:href="#n"/><use transform="matrix(0.05,0,0,0.05,31.950000000000003,0)" xlink:href="#v"/><use transform="matrix(0.05,0,0,0.05,41.95,0)" xlink:href="#k"/></g><path d="M185-189c-5-48-123-54-124 2 14 75 158 14 163 119 3 78-121 87-175 55-17-10-28-26-33-46l33-7c5 56 141 63 141-1 0-78-155-14-162-118-5-82 145-84 179-34 5 7 8 16 11 25" id="z"/><path d="M114-163C36-179 61-72 57 0H25l-1-190h30c1 12-1 29 2 39 6-27 23-49 58-41v29" id="A"/><path d="M108 0H70L1-190h34L89-25l56-165h34" id="B"/><g id="f"><use transform="matrix(0.05,0,0,0.05,0,0)" xlink:href="#z"/><use transform="matrix(0.05,0,0,0.05,12,0)" xlink:href="#k"/><use transform="matrix(0.05,0,0,0.05,22,0)" xlink:href="#A"/><use transform="matrix(0.05,0,0,0.05,27.950000000000003,0)" xlink:href="#B"/><use transform="matrix(0.05,0,0,0.05,36.95,0)" xlink:href="#t"/><use transform="matrix(0.05,0,0,0.05,40.900000000000006,0)" xlink:href="#n"/><use transform="matrix(0.05,0,0,0.05,49.900000000000006,0)" xlink:href="#k"/></g><path d="M126-127c33 6 58 20 58 59 0 88-139 92-164 29-3-8-5-16-6-25l32-3c6 27 21 44 54 44 32 0 52-15 52-46 0-38-36-46-79-43v-28c39 1 72-4 72-42 0-27-17-43-46-43-28 0-47 15-49 41l-32-3c6-42 35-63 81-64 48-1 79 21 79 65 0 36-21 52-52 59" id="C"/><g id="g"><use transform="matrix(0.05,0,0,0.05,0,0)" xlink:href="#z"/><use transform="matrix(0.05,0,0,0.05,12,0)" xlink:href="#C"/></g><path d="M115-194c53 0 69 39 70 98 0 66-23 100-70 100C84 3 66-7 56-30L54 0H23l1-261h32v101c10-23 28-34 59-34zm-8 174c40 0 45-34 45-75 0-40-5-75-45-74-42 0-51 32-51 76 0 43 10 73 51 73" id="D"/><g id="h"><use transform="matrix(0.05,0,0,0.05,0,0)" xlink:href="#p"/><use transform="matrix(0.05,0,0,0.05,14.950000000000001,0)" xlink:href="#q"/><use transform="matrix(0.05,0,0,0.05,24.950000000000003,0)" xlink:href="#D"/><use transform="matrix(0.05,0,0,0.05,34.95,0)" xlink:href="#t"/><use transform="matrix(0.05,0,0,0.05,38.900000000000006,0)" xlink:href="#s"/><use transform="matrix(0.05,0,0,0.05,42.85000000000001,0)" xlink:href="#k"/></g><path d="M266 0h-40l-56-210L115 0H75L2-248h35L96-30l15-64 43-154h32l59 218 59-218h35" id="E"/><g id="i"><use transform="matrix(0.05,0,0,0.05,0,0)" xlink:href="#E"/><use transform="matrix(0.05,0,0,0.05,16.599999999999998,0)" xlink:href="#k"/><use transform="matrix(0.05,0,0,0.05,26.599999999999994,0)" xlink:href="#D"/></g></defs></g></svg>