<svg xmlns="http://www.w3.org/2000/svg" xmlns:xlink="http://www.w3.org/1999/xlink" width="911" height="460"><g transform="translate(-120 -220)"><path d="M248 610c0 27.6-24.18 50-54 50s-54-22.4-54-50 24.18-50 54-50 54 22.4 54 50z" stroke="#000" stroke-width="2" fill="#fff"/><use xlink:href="#a" transform="matrix(1,0,0,1,145,565) translate(35.025 48.6)"/><path d="M248 450c0 27.6-24.18 50-54 50s-54-22.4-54-50 24.18-50 54-50 54 22.4 54 50z" stroke="#000" stroke-width="2" fill="#fff"/><use xlink:href="#b" transform="matrix(1,0,0,1,145,405) translate(35.5 48.6)"/><path d="M248 290c0 27.6-24.18 50-54 50s-54-22.4-54-50 24.18-50 54-50 54 22.4 54 50z" stroke="#000" stroke-width="2" fill="#fff"/><use xlink:href="#c" transform="matrix(1,0,0,1,145,245) translate(35.5 48.6)"/><path d="M248 290h749" stroke="#000" stroke-width="2" fill="none"/><path d="M248 291h-.05l.05-1-.04-1h.04z"/><path d="M997 290l-14.27 4.64v-9.28z" stroke="#000" stroke-width="2"/><path d="M248 450h752" stroke="#000" stroke-width="2" fill="none"/><path d="M248 451h-.05l.05-1-.04-1h.04z"/><path d="M1000 450l-14.27 4.64v-9.28z" stroke="#000" stroke-width="2"/><path d="M248 610h752" stroke="#000" stroke-width="2" fill="none"/><path d="M248 611h-.05l.05-1-.04-1h.04z"/><path d="M1000 610l-14.27 4.64v-9.28z" stroke="#000" stroke-width="2"/><path d="M300 305c0 2.76 2.24 5 5 5h50c2.76 0 5-2.24 5-5v-30c0-2.76-2.24-5-5-5h-50c-2.76 0-5 2.24-5 5z" stroke="#000" stroke-width="2" fill="#a3d977"/><use xlink:href="#d" transform="matrix(1,0,0,1,305,275) translate(11.5 18.6)"/><path d="M380 465c0 2.76 2.24 5 5 5h50c2.76 0 5-2.24 5-5v-30c0-2.76-2.24-5-5-5h-50c-2.76 0-5 2.24-5 5z" stroke="#000" stroke-width="2" fill="#a3d977"/><use xlink:href="#e" transform="matrix(1,0,0,1,385,435) translate(11.5 18.6)"/><path d="M650 642.4c0 2.76 2.24 5 5 5h50c2.76 0 5-2.24 5-5v-64.8c0-2.76-2.24-5-5-5h-50c-2.76 0-5 2.24-5 5z" stroke="#000" stroke-width="2" fill="#fff"/><use xlink:href="#f" transform="matrix(1,0,0,1,655,577.6) translate(11.5 14.500000000000002)"/><use xlink:href="#g" transform="matrix(1,0,0,1,655,577.6) translate(11.5 36.1)"/><use xlink:href="#h" transform="matrix(1,0,0,1,655,577.6) translate(11.024999999999999 57.7)"/><path d="M330 310l.02.84.05.82.08.8.12.8.16.8.18.8.24.8.26.8.3.83.35.8.4.85.44.85.5.88.57.9.65.94.74.97.83 1 .95 1.06 1.1 1.12 1.26 1.2 1.48 1.25 1.7 1.36 2.03 1.45 2.43 1.6 2.92 1.77 3.58 1.97 4.5 2.2 5.78 2.58 7.73 3.05 10.9 3.78 17.3 5.2 118.23 30.4 10.9 3.77 7.73 3.05 5.78 2.57 4.5 2.2 3.57 1.98 2.92 1.76 2.42 1.6 2 1.47 1.72 1.37 1.47 1.26 1.25 1.2 1.1 1.1.96 1.07.84 1 .74.98.65.94.57.9.5.88.46.85.4.84.34.8.3.83.26.8.23.8.17.8.16.8.12.8.08.8.05.83.02.84" stroke="#000" stroke-width="2" fill="none"/><path d="M329.07 310.36l-.14-.36H330zM570 423.4l-9.43-11.67 8.66-3.3z"/><path d="M571 423.4h-2.3l-9.77-12.1 11.23-4.3zm-8.8-11.22l6.64 8.2-.54-10.53z"/><path d="M570 476.6l.03 1.4.1 1.36.14 1.3.2 1.3.27 1.25.32 1.25.37 1.23.43 1.22.5 1.22.57 1.22.64 1.24.72 1.26.8 1.28.93 1.3 1.05 1.37 1.2 1.4 1.38 1.48 1.6 1.55 1.86 1.67 2.2 1.8 2.66 1.97 3.28 2.2 4.22 2.58 5.78 3.17 9.45 4.6 38.04 17.36 5.78 3.17 4.22 2.57 3.28 2.2 2.66 1.98 2.2 1.8 1.87 1.67 1.6 1.55 1.37 1.48 1.2 1.4 1.05 1.37.92 1.3.8 1.3.73 1.25.64 1.24.57 1.22.5 1.22.43 1.22.37 1.23.32 1.24.26 1.25.2 1.28.16 1.3.1 1.37.02 1.4" stroke="#000" stroke-width="2" fill="none"/><path d="M569.03 476.86l-.06-.26H570zM680 572.6l-8.1-12.62 8.95-2.36z"/><path d="M681 572.6h-2.2l-8.5-13.23 11.63-3.06zm-7.53-12l5.7 8.87.6-10.53z"/><path d="M410 430v-.6l.05-.58.06-.58.1-.58.1-.57.14-.6.17-.58.2-.6.22-.6.26-.6.3-.63.33-.65.4-.67.43-.68.5-.7.56-.76.64-.78.74-.82.85-.87 1-.93 1.15-1 1.36-1.08 1.6-1.17 1.94-1.3 2.35-1.4 2.88-1.6 3.63-1.78 4.62-2.05 6.08-2.4 8.28-2.88 11.86-3.56 18.4-4.7 34.4-7.2-3.52.64m0 0c-.5-2.72 1.3-5.32 4.03-5.82 2.7-.5 5.32 1.3 5.8 4.03l156.96-28.54 18.4-4.7 11.86-3.55 8.27-2.87 6.08-2.4 4.62-2.05 3.62-1.8 2.87-1.57 2.35-1.4 1.93-1.3 1.6-1.16 1.37-1.08 1.16-1 1-.93.84-.87.74-.82.65-.78.58-.75.5-.7.43-.68.4-.67.33-.64.3-.6.25-.63.22-.6.2-.6.16-.58.13-.6.1-.56.1-.58.05-.58.04-.6v-.58" stroke="#000" stroke-width="2" fill="none"/><path d="M410 430h-1.12l.23-.46zM747.65 331.42l-8.26-4.2L750 316.6z"/><path d="M748.43 332.93l-10.72-5.46 10.9-10.87h2.4zm-7.36-6l5.8 2.97 1.66-10.42z"/><path d="M680 572.6l.08-4.02.25-3.86.4-3.73.52-3.63.67-3.53.8-3.45.96-3.4 1.1-3.35 1.23-3.32 1.4-3.3 1.56-3.32 1.74-3.32 1.94-3.37 2.17-3.4 2.44-3.5 2.72-3.6 3.08-3.7 3.5-3.87 3.98-4.07 4.62-4.34 5.42-4.68 6.5-5.15 8.06-5.84 10.5-6.96 15.4-9.3L790 452.44m0 0c-1.34-2.42-.48-5.46 1.93-6.8 2.42-1.35 5.46-.5 6.8 1.92l45.66-25.46 10.48-6.96 8.05-5.83 6.5-5.14 5.43-4.68 4.62-4.34 4-4.07 3.48-3.87 3.08-3.7 2.72-3.6 2.43-3.5 2.16-3.4 1.94-3.38 1.74-3.33 1.56-3.32 1.4-3.3 1.23-3.33 1.1-3.35.94-3.4.8-3.44.68-3.53.53-3.62.4-3.72.24-3.86.08-4.02" stroke="#000" stroke-width="2" fill="none"/><path d="M680.05 572.6H679v-.08zM913.47 342l-9.24-.75L910 327.4z"/><path d="M914.76 343.1l-11.98-.97 6.14-14.73h2.1zm-9.08-2.74l6.5.53-2.44-10.27z"/><path d="M540 471.6c0 2.76 2.24 5 5 5h50c2.76 0 5-2.24 5-5v-43.2c0-2.76-2.24-5-5-5h-50c-2.76 0-5 2.24-5 5z" stroke="#000" stroke-width="2" fill="#fff"/><use xlink:href="#f" transform="matrix(1,0,0,1,545,428.4) translate(11.5 14.799999999999999)"/><use xlink:href="#i" transform="matrix(1,0,0,1,545,428.4) translate(11.5 36.4)"/><path d="M720 311.6c0 2.76 2.24 5 5 5h50c2.76 0 5-2.24 5-5v-43.2c0-2.76-2.24-5-5-5h-50c-2.76 0-5 2.24-5 5z" stroke="#000" stroke-width="2" fill="#fff"/><use xlink:href="#j" transform="matrix(1,0,0,1,725,268.4) translate(11.5 14.799999999999999)"/><use xlink:href="#k" transform="matrix(1,0,0,1,725,268.4) translate(11.5 36.4)"/><path d="M880 322.4c0 2.76 2.24 5 5 5h50c2.76 0 5-2.24 5-5v-64.8c0-2.76-2.24-5-5-5h-50c-2.76 0-5 2.24-5 5z" stroke="#000" stroke-width="2" fill="#fff"/><use xlink:href="#l" transform="matrix(1,0,0,1,885,257.6) translate(11.5 14.500000000000002)"/><use xlink:href="#g" transform="matrix(1,0,0,1,885,257.6) translate(11.5 36.1)"/><use xlink:href="#h" transform="matrix(1,0,0,1,885,257.6) translate(11.024999999999999 57.7)"/><path d="M510 305c0 2.76 2.24 5 5 5h50c2.76 0 5-2.24 5-5v-30c0-2.76-2.24-5-5-5h-50c-2.76 0-5 2.24-5 5z" stroke="#000" stroke-width="2" fill="#a3d977"/><g><use xlink:href="#m" transform="matrix(1,0,0,1,515,275) translate(11.5 18.6)"/></g><path d="M570 290h150" stroke="#000" stroke-width="2" fill="none"/><path d="M570 291v-2zM720 290l-14.27 4.64v-9.28z"/><path d="M720 288.95v2.1L704.73 296v-12zm-13.27 4.3l10.03-3.25-10.03-3.26z"/><defs><path d="M212-179c-10-28-35-45-73-45-59 0-87 40-87 99 0 60 29 101 89 101 43 0 62-24 78-52l27 14C228-24 195 4 139 4 59 4 22-46 18-125c-6-104 99-153 187-111 19 9 31 26 39 46" id="n"/><path d="M33-154v-36h34v36H33zM33 0v-36h34V0H33" id="o"/><path d="M101-251c68 0 85 55 85 127S166 4 100 4C33 4 14-52 14-124c0-73 17-127 87-127zm-1 229c47 0 54-49 54-102s-4-102-53-102c-51 0-55 48-55 102 0 53 5 102 54 102" id="p"/><g id="a"><use transform="matrix(0.05,0,0,0.05,0,0)" xlink:href="#n"/><use transform="matrix(0.05,0,0,0.05,12.950000000000001,0)" xlink:href="#o"/><use transform="matrix(0.05,0,0,0.05,17.950000000000003,0)" xlink:href="#p"/></g><path d="M160-131c35 5 61 23 61 61C221 17 115-2 30 0v-248c76 3 177-17 177 60 0 33-19 50-47 57zm-97-11c50-1 110 9 110-42 0-47-63-36-110-37v79zm0 115c55-2 124 14 124-45 0-56-70-42-124-44v89" id="q"/><g id="b"><use transform="matrix(0.05,0,0,0.05,0,0)" xlink:href="#q"/><use transform="matrix(0.05,0,0,0.05,12,0)" xlink:href="#o"/><use transform="matrix(0.05,0,0,0.05,17,0)" xlink:href="#p"/></g><path d="M205 0l-28-72H64L36 0H1l101-248h38L239 0h-34zm-38-99l-47-123c-12 45-31 82-46 123h93" id="r"/><g id="c"><use transform="matrix(0.05,0,0,0.05,0,0)" xlink:href="#r"/><use transform="matrix(0.05,0,0,0.05,12,0)" xlink:href="#o"/><use transform="matrix(0.05,0,0,0.05,17,0)" xlink:href="#p"/></g><path d="M27 0v-27h64v-190l-56 39v-29l58-41h29v221h61V0H27" id="s"/><g id="d"><use transform="matrix(0.05,0,0,0.05,0,0)" xlink:href="#r"/><use transform="matrix(0.05,0,0,0.05,12,0)" xlink:href="#o"/><use transform="matrix(0.05,0,0,0.05,17,0)" xlink:href="#s"/></g><g id="e"><use transform="matrix(0.05,0,0,0.05,0,0)" xlink:href="#q"/><use transform="matrix(0.05,0,0,0.05,12,0)" xlink:href="#o"/><use transform="matrix(0.05,0,0,0.05,17,0)" xlink:href="#s"/></g><g id="f"><use transform="matrix(0.05,0,0,0.05,0,0)" xlink:href="#r"/><use transform="matrix(0.05,0,0,0.05,12,0)" xlink:href="#o"/><use transform="matrix(0.05,0,0,0.05,17,0)" xlink:href="#s"/></g><path d="M101-251c82-7 93 87 43 132L82-64C71-53 59-42 53-27h129V0H18c2-99 128-94 128-182 0-28-16-43-45-43s-46 15-49 41l-32-3c6-41 34-60 81-64" id="t"/><g id="g"><use transform="matrix(0.05,0,0,0.05,0,0)" xlink:href="#q"/><use transform="matrix(0.05,0,0,0.05,12,0)" xlink:href="#o"/><use transform="matrix(0.05,0,0,0.05,17,0)" xlink:href="#t"/></g><g id="h"><use transform="matrix(0.05,0,0,0.05,0,0)" xlink:href="#n"/><use transform="matrix(0.05,0,0,0.05,12.950000000000001,0)" xlink:href="#o"/><use transform="matrix(0.05,0,0,0.05,17.950000000000003,0)" xlink:href="#s"/></g><g id="i"><use transform="matrix(0.05,0,0,0.05,0,0)" xlink:href="#q"/><use transform="matrix(0.05,0,0,0.05,12,0)" xlink:href="#o"/><use transform="matrix(0.05,0,0,0.05,17,0)" xlink:href="#t"/></g><path d="M126-127c33 6 58 20 58 59 0 88-139 92-164 29-3-8-5-16-6-25l32-3c6 27 21 44 54 44 32 0 52-15 52-46 0-38-36-46-79-43v-28c39 1 72-4 72-42 0-27-17-43-46-43-28 0-47 15-49 41l-32-3c6-42 35-63 81-64 48-1 79 21 79 65 0 36-21 52-52 59" id="u"/><g id="j"><use transform="matrix(0.05,0,0,0.05,0,0)" xlink:href="#r"/><use transform="matrix(0.05,0,0,0.05,12,0)" xlink:href="#o"/><use transform="matrix(0.05,0,0,0.05,17,0)" xlink:href="#u"/></g><g id="k"><use transform="matrix(0.05,0,0,0.05,0,0)" xlink:href="#q"/><use transform="matrix(0.05,0,0,0.05,12,0)" xlink:href="#o"/><use transform="matrix(0.05,0,0,0.05,17,0)" xlink:href="#s"/></g><path d="M155-56V0h-30v-56H8v-25l114-167h33v167h35v25h-35zm-30-156c-27 46-58 90-88 131h88v-131" id="v"/><g id="l"><use transform="matrix(0.05,0,0,0.05,0,0)" xlink:href="#r"/><use transform="matrix(0.05,0,0,0.05,12,0)" xlink:href="#o"/><use transform="matrix(0.05,0,0,0.05,17,0)" xlink:href="#v"/></g><g id="m"><use transform="matrix(0.05,0,0,0.05,0,0)" xlink:href="#r"/><use transform="matrix(0.05,0,0,0.05,12,0)" xlink:href="#o"/><use transform="matrix(0.05,0,0,0.05,17,0)" xlink:href="#t"/></g></defs></g></svg>