<svg xmlns="http://www.w3.org/2000/svg" xmlns:xlink="http://www.w3.org/1999/xlink" width="752.97" height="678.55"><g transform="translate(-287.0265954186648 -41.44711755072659)"><path d="M840 140h160v120H840z" stroke="#000" stroke-width="2" fill="#fff"/><use xlink:href="#a" transform="matrix(1,0,0,1,845,145) translate(31.574999999999996 58.6)"/><path d="M1020 274c0 3.3-13.43 6-30 6s-30-2.7-30-6v-48c0-3.3 13.43-6 30-6s30 2.7 30 6z" stroke="#000" stroke-width="2" fill="#fff"/><path d="M1020 226c0 3.3-13.43 6-30 6s-30-2.7-30-6" stroke="#000" stroke-width="2" fill="none"/><use xlink:href="#b" transform="matrix(1,0,0,1,965,237) translate(25 24.4)"/><path d="M610 140h160v120H610z" stroke="#000" stroke-width="2" fill="#fff"/><use xlink:href="#c" transform="matrix(1,0,0,1,615,145) translate(47.05 58.6)"/><path d="M790 274c0 3.3-13.43 6-30 6s-30-2.7-30-6v-48c0-3.3 13.43-6 30-6s30 2.7 30 6z" stroke="#000" stroke-width="2" fill="#fff"/><path d="M790 226c0 3.3-13.43 6-30 6s-30-2.7-30-6" stroke="#000" stroke-width="2" fill="none"/><use xlink:href="#b" transform="matrix(1,0,0,1,735,237) translate(25 24.4)"/><path d="M380 140h160v120H380z" stroke="#000" stroke-width="2" fill="#fff"/><use xlink:href="#d" transform="matrix(1,0,0,1,385,145) translate(51.55 58.6)"/><path d="M560 274c0 3.3-13.43 6-30 6s-30-2.7-30-6v-48c0-3.3 13.43-6 30-6s30 2.7 30 6z" stroke="#000" stroke-width="2" fill="#fff"/><path d="M560 226c0 3.3-13.43 6-30 6s-30-2.7-30-6" stroke="#000" stroke-width="2" fill="none"/><use xlink:href="#b" transform="matrix(1,0,0,1,505,237) translate(25 24.4)"/><path d="M499.75 539.75c0 10.9-8.84 19.75-19.75 19.75-10.9 0-19.75-8.84-19.75-19.75 0-10.9 8.84-19.75 19.75-19.75 10.9 0 19.75 8.84 19.75 19.75z" stroke="#000" stroke-width="2" fill="#fff"/><path d="M440 520h80v158h-80z" fill="none"/><path d="M480 559.5v55.3l40 63.2m-40-63.2L440 678m0-98.75h80" stroke="#000" stroke-width="2" fill="none"/><use xlink:href="#e" transform="matrix(1,0,0,1,360,678) translate(96.275 14.6)"/><path d="M859.75 539.75c0 10.9-8.84 19.75-19.75 19.75-10.9 0-19.75-8.84-19.75-19.75 0-10.9 8.84-19.75 19.75-19.75 10.9 0 19.75 8.84 19.75 19.75z" stroke="#000" stroke-width="2" fill="#fff"/><path d="M800 520h80v158h-80z" fill="none"/><path d="M840 559.5v55.3l40 63.2m-40-63.2L800 678m0-98.75h80" stroke="#000" stroke-width="2" fill="none"/><use xlink:href="#f" transform="matrix(1,0,0,1,720,678) translate(90.55 14.6)"/><path d="M480 520l-.82-42.22-1.85-29.76-2.78-26.47-11.88-89.57-1.85-29.76L460 260" stroke="#000" stroke-width="2" fill="none"/><path d="M481 520h-1.2l1.2-.02zM464.9 274.17l-9.26.18L460 260z"/><path d="M466.3 275.15l-12 .23 4.65-15.38h2.1zm-9.3-1.82l6.52-.13-3.46-9.96z"/><path d="M690 260l.28 13.33.76 12.23 1.2 11.36 1.57 10.67 1.94 10.12 2.28 9.74 2.64 9.45 3.02 9.3 3.43 9.22 3.92 9.3 4.5 9.53 5.2 9.95 6.14 10.64 7.5 11.83 9.7 13.92 14.14 18.55 70.07 83.6" stroke="#000" stroke-width="2" fill="none"/><path d="M689 260.03V260h1.14z"/><path d="M828.27 522.74l-12.7-7.95 7.1-5.97z" stroke="#000" stroke-width="2"/><path d="M496.84 527.82l38.05-32.3 21.2-19.66 15.23-15.36 11.95-13.1 9.82-11.73 8.32-10.84 7.2-10.22 6.3-9.8 5.6-9.58 5-9.42 4.47-9.4 4.03-9.44 3.62-9.6 3.25-9.8 2.9-10.15 2.52-10.54 2.18-11.1 1.8-11.74 1.38-12.57.93-13.6.4-14.82V261M496.84 527.82l-2.28 1.94" stroke="#000" stroke-width="2" fill="none"/><path d="M657.3 275.37l-9.26-.2L653 261z"/><path d="M658.66 276.4l-12.02-.28L652.3 260h1.44zm-9.22-2.2l6.5.14-3-10.1z"/><path d="M853.44 524.07l21.2-30.33 13.78-21.6 10.17-17.54 8-15.28 6.6-13.94 5.56-13.17 4.78-12.8 4.17-12.78 3.67-13.05 3.2-13.64 2.8-14.6 2.4-16.1 1.94-18.3 1.4-21.7.57-27.32v-.9" stroke="#000" stroke-width="2" fill="none"/><path d="M853.44 524.07l4.38-14.35 7.6 5.3z" stroke="#000" stroke-width="2"/><path d="M948.02 275.36l-9.27-.2 4.92-14.16z"/><path d="M949.37 276.38l-12.02-.24 5.6-16.14h1.46zm-9.23-2.18l6.52.13-3.06-10.1z"/><path d="M885 139l-.04-2-.12-1.96-.2-1.92-.3-1.9-.34-1.85-.44-1.85-.5-1.84-.6-1.83-.7-1.84-.76-1.83-.87-1.85-.98-1.87-1.1-1.9-1.2-1.9-1.37-1.96-1.52-2-1.7-2.06-1.88-2.1-2.12-2.16-2.4-2.24-2.67-2.3-3.05-2.42-3.45-2.5-3.93-2.6-4.5-2.74-5.2-2.85-6-2.98-7-3.1-8.2-3.25-9.65-3.35-11.4-3.44-13.5-3.44-16-3.4-18.92-3.18-22.2-2.8-25.64-2.13-28.93-1.2h-31.6l-33.17 1.4-33.3 2.8-32.1 4.05-29.73 5.02-26.8 5.7-23.63 6.05-20.58 6.2-17.78 6.2-15.3 6.04-13.2 5.88-11.37 5.64-9.83 5.4-8.53 5.16-7.4 4.93-6.5 4.73-5.7 4.5-1.44 1.2-4.95 4.38-4.57 4.4-4.23 4.43-3.9 4.45-3.65 4.5-3.37 4.54-3.12 4.6-2.9 4.7-2.68 4.76-2.48 4.88-2.28 5-2.08 5.1-1.9 5.3-1.7 5.44-1.5 5.64-1.3 5.85-1.1 6.1-.86 6.37-.62 6.68-.36 7.02-.07 7.4.25 7.84.62 8.33 1.04 8.85 1.5 9.46 2.07 10.13 2.7 10.87 3.4 11.7 4.26 12.6 5.23 13.55 6.32 14.57 7.57 15.6 8.9 16.6 10.35 17.43 11.72 18 12.92 18.14 13.75 17.7 14.06 16.62 13.76 14.93 12.88 12.85 11.6 10.65 10.12 8.56 8.68 6.72 1.55 1.14" stroke="#000" stroke-width="2" fill="none"/><path d="M885 139l-6.88-13.33 9.15-1.5z"/><path d="M885.86 140h-1.47l-7.8-15.1 11.87-1.94zm-6.22-13.57l4.84 9.37 1.6-10.42z"/><path d="M463.3 527.72l-14.12-5.1 5.7-7.33z" stroke="#000" stroke-width="2"/><defs><path d="M212-179c-10-28-35-45-73-45-59 0-87 40-87 99 0 60 29 101 89 101 43 0 62-24 78-52l27 14C228-24 195 4 139 4 59 4 22-46 18-125c-6-104 99-153 187-111 19 9 31 26 39 46" id="g"/><path d="M100-194c62-1 85 37 85 99 1 63-27 99-86 99S16-35 15-95c0-66 28-99 85-99zM99-20c44 1 53-31 53-75 0-43-8-75-51-75s-53 32-53 75 10 74 51 75" id="h"/><path d="M210-169c-67 3-38 105-44 169h-31v-121c0-29-5-50-35-48C34-165 62-65 56 0H25l-1-190h30c1 10-1 24 2 32 10-44 99-50 107 0 11-21 27-35 58-36 85-2 47 119 55 194h-31v-121c0-29-5-49-35-48" id="i"/><path d="M100-194c63 0 86 42 84 106H49c0 40 14 67 53 68 26 1 43-12 49-29l28 8c-11 28-37 45-77 45C44 4 14-33 15-96c1-61 26-98 85-98zm52 81c6-60-76-77-97-28-3 7-6 17-6 28h103" id="j"/><path d="M117-194c89-4 53 116 60 194h-32v-121c0-31-8-49-39-48C34-167 62-67 57 0H25l-1-190h30c1 10-1 24 2 32 11-22 29-35 61-36" id="k"/><path d="M59-47c-2 24 18 29 38 22v24C64 9 27 4 27-40v-127H5v-23h24l9-43h21v43h35v23H59v120" id="l"/><path d="M135-143c-3-34-86-38-87 0 15 53 115 12 119 90S17 21 10-45l28-5c4 36 97 45 98 0-10-56-113-15-118-90-4-57 82-63 122-42 12 7 21 19 24 35" id="m"/><g id="a"><use transform="matrix(0.05,0,0,0.05,0,0)" xlink:href="#g"/><use transform="matrix(0.05,0,0,0.05,12.950000000000001,0)" xlink:href="#h"/><use transform="matrix(0.05,0,0,0.05,22.950000000000003,0)" xlink:href="#i"/><use transform="matrix(0.05,0,0,0.05,37.900000000000006,0)" xlink:href="#i"/><use transform="matrix(0.05,0,0,0.05,52.85,0)" xlink:href="#j"/><use transform="matrix(0.05,0,0,0.05,62.85,0)" xlink:href="#k"/><use transform="matrix(0.05,0,0,0.05,72.85000000000001,0)" xlink:href="#l"/><use transform="matrix(0.05,0,0,0.05,77.85000000000001,0)" xlink:href="#m"/></g><path d="M185-189c-5-48-123-54-124 2 14 75 158 14 163 119 3 78-121 87-175 55-17-10-28-26-33-46l33-7c5 56 141 63 141-1 0-78-155-14-162-118-5-82 145-84 179-34 5 7 8 16 11 25" id="n"/><path d="M114-163C36-179 61-72 57 0H25l-1-190h30c1 12-1 29 2 39 6-27 23-49 58-41v29" id="o"/><path d="M24-231v-30h32v30H24zM24 0v-190h32V0H24" id="p"/><g id="c"><use transform="matrix(0.05,0,0,0.05,0,0)" xlink:href="#n"/><use transform="matrix(0.05,0,0,0.05,12,0)" xlink:href="#l"/><use transform="matrix(0.05,0,0,0.05,17,0)" xlink:href="#h"/><use transform="matrix(0.05,0,0,0.05,27,0)" xlink:href="#o"/><use transform="matrix(0.05,0,0,0.05,32.95,0)" xlink:href="#p"/><use transform="matrix(0.05,0,0,0.05,36.900000000000006,0)" xlink:href="#j"/><use transform="matrix(0.05,0,0,0.05,46.900000000000006,0)" xlink:href="#m"/></g><path d="M232-93c-1 65-40 97-104 97C67 4 28-28 28-90v-158h33c8 89-33 224 67 224 102 0 64-133 71-224h33v155" id="q"/><g id="d"><use transform="matrix(0.05,0,0,0.05,0,0)" xlink:href="#q"/><use transform="matrix(0.05,0,0,0.05,12.950000000000001,0)" xlink:href="#m"/><use transform="matrix(0.05,0,0,0.05,21.950000000000003,0)" xlink:href="#j"/><use transform="matrix(0.05,0,0,0.05,31.950000000000003,0)" xlink:href="#o"/><use transform="matrix(0.05,0,0,0.05,37.900000000000006,0)" xlink:href="#m"/></g><path d="M266 0h-40l-56-210L115 0H75L2-248h35L96-30l15-64 43-154h32l59 218 59-218h35" id="r"/><g id="e"><use transform="matrix(0.05,0,0,0.05,0,0)" xlink:href="#r"/><use transform="matrix(0.05,0,0,0.05,16.599999999999998,0)" xlink:href="#o"/><use transform="matrix(0.05,0,0,0.05,22.549999999999997,0)" xlink:href="#p"/><use transform="matrix(0.05,0,0,0.05,26.499999999999996,0)" xlink:href="#l"/><use transform="matrix(0.05,0,0,0.05,31.499999999999996,0)" xlink:href="#j"/><use transform="matrix(0.05,0,0,0.05,41.5,0)" xlink:href="#o"/></g><path d="M233-177c-1 41-23 64-60 70L243 0h-38l-65-103H63V0H30v-248c88 3 205-21 203 71zM63-129c60-2 137 13 137-47 0-61-80-42-137-45v92" id="s"/><path d="M141-36C126-15 110 5 73 4 37 3 15-17 15-53c-1-64 63-63 125-63 3-35-9-54-41-54-24 1-41 7-42 31l-33-3c5-37 33-52 76-52 45 0 72 20 72 64v82c-1 20 7 32 28 27v20c-31 9-61-2-59-35zM48-53c0 20 12 33 32 33 41-3 63-29 60-74-43 2-92-5-92 41" id="t"/><path d="M85-194c31 0 48 13 60 33l-1-100h32l1 261h-30c-2-10 0-23-3-31C134-8 116 4 85 4 32 4 16-35 15-94c0-66 23-100 70-100zm9 24c-40 0-46 34-46 75 0 40 6 74 45 74 42 0 51-32 51-76 0-42-9-74-50-73" id="u"/><g id="f"><use transform="matrix(0.05,0,0,0.05,0,0)" xlink:href="#s"/><use transform="matrix(0.05,0,0,0.05,12.950000000000001,0)" xlink:href="#j"/><use transform="matrix(0.05,0,0,0.05,22.950000000000003,0)" xlink:href="#t"/><use transform="matrix(0.05,0,0,0.05,32.95,0)" xlink:href="#u"/><use transform="matrix(0.05,0,0,0.05,42.95,0)" xlink:href="#j"/><use transform="matrix(0.05,0,0,0.05,52.95,0)" xlink:href="#o"/></g></defs></g></svg>