<svg xmlns="http://www.w3.org/2000/svg" xmlns:xlink="http://www.w3.org/1999/xlink" width="620" height="440"><g transform="translate(-360 -140)"><path d="M380 160h160v120H380z" stroke="#000" stroke-width="2" fill="#fff"/><use xlink:href="#a" transform="matrix(1,0,0,1,385,165) translate(51.55 58.6)"/><path d="M800 240h160v120H800z" stroke="#000" stroke-width="2" fill="#fff"/><use xlink:href="#b" transform="matrix(1,0,0,1,805,245) translate(47.05 58.6)"/><path d="M600 440h160v120H600z" stroke="#000" stroke-width="2" fill="#fff"/><use xlink:href="#c" transform="matrix(1,0,0,1,605,445) translate(31.574999999999996 58.6)"/><path d="M460 280l.4 18.9 1.13 18.1 1.78 17 2.32 15.66 2.73 14.3 3.04 13 3.27 11.76 3.44 10.6 3.57 9.6 3.64 8.64 3.7 7.84 3.7 7.1 3.73 6.47 3.73 5.88 3.74 5.38 3.73 4.92 3.74 4.5 3.73 4.16 3.74 3.83 3.75 3.53 3.76 3.25 3.8 3 3.8 2.8 3.87 2.55 3.9 2.37 3.97 2.18 4.03 2 4.1 1.83 4.2 1.66 4.32 1.5 4.44 1.33 4.56 1.18 4.73 1 4.9.84 5.12.65 5.35.44 5.62.23 2.9.03" stroke="#000" stroke-width="2" fill="none"/><path d="M459 280.02V280h1.15zM600 500l-14.5 3.82.52-9.26z"/><path d="M600 498.93v2.1l-15.58 4.1.68-12zm-13.43 3.57l10.2-2.68-9.83-3.83z"/><path d="M760 500l6.75-.14 6.64-.42 6.5-.68 6.4-.95 6.3-1.2 6.14-1.43 6.03-1.68 5.9-1.92 5.73-2.14 5.6-2.36 5.46-2.56 5.3-2.77 5.13-2.97 4.96-3.15 4.8-3.34 4.62-3.5 4.45-3.7 4.26-3.83 4.06-4 3.9-4.13 3.68-4.27 3.5-4.42 3.3-4.54 3.1-4.65 2.9-4.8 2.7-4.9 2.5-5.02 2.27-5.13 2.1-5.24 1.85-5.36 1.65-5.46 1.43-5.57 1.2-5.7 1-5.8.74-5.92.5-6.04.26-6.17.04-3.13" stroke="#000" stroke-width="2" fill="none"/><path d="M760.05 501H760v-1.05zM907.57 375.48l-9.26-.47 5.37-14z"/><path d="M908.9 376.55l-12.02-.6 6.1-15.95h1.45zm-9.17-2.47l6.5.34-2.73-10.2z"/><use xlink:href="#d" transform="matrix(1,0,0,1,767.8401498490937,499.17549408690377) translate(0 14.4)"/><use xlink:href="#e" transform="matrix(1,0,0,1,767.8401498490937,499.17549408690377) translate(62.95 14.4)"/><path d="M460 280l.1 5.36.3 4.72.44 4.2.56 3.75.64 3.4.73 3.07.78 2.82.84 2.6.88 2.4.94 2.22.98 2.08 1.02 1.95 1.06 1.83 1.1 1.74 1.14 1.64 1.2 1.57 1.22 1.5 1.3 1.42 1.33 1.37 1.4 1.3 1.48 1.28 1.54 1.23 1.62 1.18 1.72 1.14 1.83 1.1 1.94 1.08 2.1 1.03 2.24 1 2.42.96 2.63.9 2.87.88 3.17.8 3.5.76 3.95.66 4.44.56 5.1.43 5.9.24h6.98l8.45-.36 10.56-.9 13.86-1.75 20-3.42 40.2-8.7 99.44-22.75 24.7-4.22 18.03-2.3 14.3-1.2 11.8-.5L800 300" stroke="#000" stroke-width="2" fill="none"/><path d="M459 280.07V280h1.06zM800 300l-14.1 5.08-.3-9.26z"/><path d="M800 298.96v2.1l-15.07 5.43-.38-12.03zm-13.16 4.7l9.93-3.56-10.13-2.94z"/><use xlink:href="#d" transform="matrix(1,0,0,1,473.4937795733645,349.72656554483086) translate(0 14.4)"/><use xlink:href="#f" transform="matrix(1,0,0,1,473.4937795733645,349.72656554483086) translate(62.95 14.4)"/><defs><path d="M232-93c-1 65-40 97-104 97C67 4 28-28 28-90v-158h33c8 89-33 224 67 224 102 0 64-133 71-224h33v155" id="g"/><path d="M135-143c-3-34-86-38-87 0 15 53 115 12 119 90S17 21 10-45l28-5c4 36 97 45 98 0-10-56-113-15-118-90-4-57 82-63 122-42 12 7 21 19 24 35" id="h"/><path d="M100-194c63 0 86 42 84 106H49c0 40 14 67 53 68 26 1 43-12 49-29l28 8c-11 28-37 45-77 45C44 4 14-33 15-96c1-61 26-98 85-98zm52 81c6-60-76-77-97-28-3 7-6 17-6 28h103" id="i"/><path d="M114-163C36-179 61-72 57 0H25l-1-190h30c1 12-1 29 2 39 6-27 23-49 58-41v29" id="j"/><g id="a"><use transform="matrix(0.05,0,0,0.05,0,0)" xlink:href="#g"/><use transform="matrix(0.05,0,0,0.05,12.950000000000001,0)" xlink:href="#h"/><use transform="matrix(0.05,0,0,0.05,21.950000000000003,0)" xlink:href="#i"/><use transform="matrix(0.05,0,0,0.05,31.950000000000003,0)" xlink:href="#j"/><use transform="matrix(0.05,0,0,0.05,37.900000000000006,0)" xlink:href="#h"/></g><path d="M185-189c-5-48-123-54-124 2 14 75 158 14 163 119 3 78-121 87-175 55-17-10-28-26-33-46l33-7c5 56 141 63 141-1 0-78-155-14-162-118-5-82 145-84 179-34 5 7 8 16 11 25" id="k"/><path d="M59-47c-2 24 18 29 38 22v24C64 9 27 4 27-40v-127H5v-23h24l9-43h21v43h35v23H59v120" id="l"/><path d="M100-194c62-1 85 37 85 99 1 63-27 99-86 99S16-35 15-95c0-66 28-99 85-99zM99-20c44 1 53-31 53-75 0-43-8-75-51-75s-53 32-53 75 10 74 51 75" id="m"/><path d="M24-231v-30h32v30H24zM24 0v-190h32V0H24" id="n"/><g id="b"><use transform="matrix(0.05,0,0,0.05,0,0)" xlink:href="#k"/><use transform="matrix(0.05,0,0,0.05,12,0)" xlink:href="#l"/><use transform="matrix(0.05,0,0,0.05,17,0)" xlink:href="#m"/><use transform="matrix(0.05,0,0,0.05,27,0)" xlink:href="#j"/><use transform="matrix(0.05,0,0,0.05,32.95,0)" xlink:href="#n"/><use transform="matrix(0.05,0,0,0.05,36.900000000000006,0)" xlink:href="#i"/><use transform="matrix(0.05,0,0,0.05,46.900000000000006,0)" xlink:href="#h"/></g><path d="M212-179c-10-28-35-45-73-45-59 0-87 40-87 99 0 60 29 101 89 101 43 0 62-24 78-52l27 14C228-24 195 4 139 4 59 4 22-46 18-125c-6-104 99-153 187-111 19 9 31 26 39 46" id="o"/><path d="M210-169c-67 3-38 105-44 169h-31v-121c0-29-5-50-35-48C34-165 62-65 56 0H25l-1-190h30c1 10-1 24 2 32 10-44 99-50 107 0 11-21 27-35 58-36 85-2 47 119 55 194h-31v-121c0-29-5-49-35-48" id="p"/><path d="M117-194c89-4 53 116 60 194h-32v-121c0-31-8-49-39-48C34-167 62-67 57 0H25l-1-190h30c1 10-1 24 2 32 11-22 29-35 61-36" id="q"/><g id="c"><use transform="matrix(0.05,0,0,0.05,0,0)" xlink:href="#o"/><use transform="matrix(0.05,0,0,0.05,12.950000000000001,0)" xlink:href="#m"/><use transform="matrix(0.05,0,0,0.05,22.950000000000003,0)" xlink:href="#p"/><use transform="matrix(0.05,0,0,0.05,37.900000000000006,0)" xlink:href="#p"/><use transform="matrix(0.05,0,0,0.05,52.85,0)" xlink:href="#i"/><use transform="matrix(0.05,0,0,0.05,62.85,0)" xlink:href="#q"/><use transform="matrix(0.05,0,0,0.05,72.85000000000001,0)" xlink:href="#l"/><use transform="matrix(0.05,0,0,0.05,77.85000000000001,0)" xlink:href="#h"/></g><path d="M115-194c55 1 70 41 70 98S169 2 115 4C84 4 66-9 55-30l1 105H24l-1-265h31l2 30c10-21 28-34 59-34zm-8 174c40 0 45-34 45-75s-6-73-45-74c-42 0-51 32-51 76 0 43 10 73 51 73" id="r"/><path d="M85-194c31 0 48 13 60 33l-1-100h32l1 261h-30c-2-10 0-23-3-31C134-8 116 4 85 4 32 4 16-35 15-94c0-66 23-100 70-100zm9 24c-40 0-46 34-46 75 0 40 6 74 45 74 42 0 51-32 51-76 0-42-9-74-50-73" id="s"/><path d="M141-36C126-15 110 5 73 4 37 3 15-17 15-53c-1-64 63-63 125-63 3-35-9-54-41-54-24 1-41 7-42 31l-33-3c5-37 33-52 76-52 45 0 72 20 72 64v82c-1 20 7 32 28 27v20c-31 9-61-2-59-35zM48-53c0 20 12 33 32 33 41-3 63-29 60-74-43 2-92-5-92 41" id="t"/><g id="d"><use transform="matrix(0.05,0,0,0.05,0,0)" xlink:href="#g"/><use transform="matrix(0.05,0,0,0.05,12.950000000000001,0)" xlink:href="#r"/><use transform="matrix(0.05,0,0,0.05,22.950000000000003,0)" xlink:href="#s"/><use transform="matrix(0.05,0,0,0.05,32.95,0)" xlink:href="#t"/><use transform="matrix(0.05,0,0,0.05,42.95,0)" xlink:href="#l"/><use transform="matrix(0.05,0,0,0.05,47.95,0)" xlink:href="#i"/></g><path d="M96-169c-40 0-48 33-48 73s9 75 48 75c24 0 41-14 43-38l32 2c-6 37-31 61-74 61-59 0-76-41-82-99-10-93 101-131 147-64 4 7 5 14 7 22l-32 3c-4-21-16-35-41-35" id="u"/><path d="M84 4C-5 8 30-112 23-190h32v120c0 31 7 50 39 49 72-2 45-101 50-169h31l1 190h-30c-1-10 1-25-2-33-11 22-28 36-60 37" id="v"/><g id="e"><use transform="matrix(0.05,0,0,0.05,0,0)" xlink:href="#u"/><use transform="matrix(0.05,0,0,0.05,9,0)" xlink:href="#m"/><use transform="matrix(0.05,0,0,0.05,19,0)" xlink:href="#v"/><use transform="matrix(0.05,0,0,0.05,29,0)" xlink:href="#q"/><use transform="matrix(0.05,0,0,0.05,39,0)" xlink:href="#l"/></g><path d="M0 4l72-265h28L28 4H0" id="w"/><path d="M108 0H70L1-190h34L89-25l56-165h34" id="x"/><g id="f"><use transform="matrix(0.05,0,0,0.05,0,0)" xlink:href="#q"/><use transform="matrix(0.05,0,0,0.05,10,0)" xlink:href="#t"/><use transform="matrix(0.05,0,0,0.05,20,0)" xlink:href="#p"/><use transform="matrix(0.05,0,0,0.05,34.95,0)" xlink:href="#i"/><use transform="matrix(0.05,0,0,0.05,44.95,0)" xlink:href="#w"/><use transform="matrix(0.05,0,0,0.05,49.95,0)" xlink:href="#t"/><use transform="matrix(0.05,0,0,0.05,59.95,0)" xlink:href="#x"/><use transform="matrix(0.05,0,0,0.05,68.95,0)" xlink:href="#t"/><use transform="matrix(0.05,0,0,0.05,78.95,0)" xlink:href="#l"/><use transform="matrix(0.05,0,0,0.05,83.95,0)" xlink:href="#t"/><use transform="matrix(0.05,0,0,0.05,93.95,0)" xlink:href="#j"/></g></defs></g></svg>